<svg width="808" height="348" viewBox="0 0 808 348" fill="none" xmlns="http://www.w3.org/2000/svg">
<path d="M46.2821 200.428C45.9911 200.465 45.5182 200.525 44.8635 200.608C44.2815 200.682 43.9085 200.655 43.7445 200.528C43.5806 200.401 43.4708 200.12 43.4153 199.683L43.0806 196.177L41.4817 181.855L38.7871 158.911C38.5096 156.729 38.0263 151.764 37.3371 144.015C37.1787 142.187 36.9133 139.227 36.5409 135.135C36.1593 130.97 35.8495 128.533 35.6116 127.824L35.2111 125.546C34.9707 123.655 35.4325 122.635 36.5965 122.487L40.6478 122.083C41.3753 121.99 41.8038 122.453 41.9333 123.472C41.9795 123.835 41.9986 124.277 41.9906 124.795C41.9733 125.241 41.9924 125.682 42.0479 126.118C42.0331 127.747 42.3737 131.88 43.0697 138.519C43.3286 140.555 43.8397 145.739 44.6029 154.069C45.3291 162.109 45.8032 167.001 46.0251 168.747C46.5615 172.967 47.3139 178.304 48.2824 184.76C49.2417 191.144 49.8727 194.944 50.1754 196.163C50.3036 196.59 50.4047 197.095 50.4787 197.677C50.5434 198.186 50.4805 198.563 50.29 198.809C50.1723 199.046 49.9454 199.297 49.6094 199.561C49.2099 199.908 48.1008 200.196 46.2821 200.428ZM67.3896 196.968C66.9531 197.024 66.6119 196.956 66.3659 196.766C66.1927 196.566 66.0737 196.212 66.0089 195.702L65.123 189.605C62.9561 175.466 61.7703 167.3 61.5656 165.108L57.543 133.463C57.4135 132.445 57.8217 131.875 58.7674 131.755L60.7316 131.505L63.1461 131.309C63.7281 131.235 64.0977 131.817 64.2549 133.053L64.6452 136.996L67.7107 134.943C70.3722 133.2 72.7526 131.862 74.8518 130.93C77.0145 129.916 79.8054 129.192 83.2246 128.757C86.571 128.332 89.4048 128.526 91.7259 129.34C94.1106 130.072 96.4151 131.627 98.6394 134.005C100.991 136.22 102.694 141.474 103.748 149.767L106.27 168.74L106.994 175.301C107.44 179.976 107.802 183.404 108.079 185.587C108.32 187.478 108.499 188.601 108.618 188.955C108.856 189.664 108.98 190.055 108.989 190.128C109.045 190.565 108.977 190.906 108.787 191.152C108.66 191.316 108.382 191.462 107.955 191.59C107.392 191.81 106.455 192.003 105.146 192.169C103.909 192.326 103.145 192.423 102.854 192.46C102.345 192.525 101.999 192.421 101.817 192.149C101.634 191.876 101.474 191.194 101.335 190.103L99.4688 171.933L98.397 161.757L97.5352 154.105C96.6844 147.412 95.6567 143.107 94.4521 141.191C93.2659 139.419 92.2172 138.148 91.306 137.377C90.4583 136.524 89.3566 135.998 88.0009 135.801C86.7087 135.522 84.8623 135.535 82.4616 135.84C79.5517 136.21 76.5749 137.216 73.5312 138.86C70.5602 140.494 68.1534 142.205 66.3106 143.992C67.0412 149.739 67.7156 154.754 68.3339 159.037L70.2481 174.095C70.856 177.714 71.4552 181.556 72.0458 185.621C72.6364 189.685 73.0473 192.627 73.2785 194.446C73.3525 195.028 73.2261 195.487 72.8993 195.824C72.6453 196.152 72.0455 196.377 71.0998 196.497L67.3896 196.968ZM181.669 183.772C176.94 184.374 172.171 183.206 167.363 180.269C162.617 177.249 158.547 172.851 155.151 167.073C151.755 161.295 149.591 154.732 148.657 147.385C147.732 140.11 148.136 133.406 149.87 127.271C151.676 121.128 154.336 116.17 157.848 112.397C161.36 108.623 165.19 106.473 169.336 105.946C174.501 105.29 178.787 105.854 182.192 107.639C185.661 109.342 188.212 111.087 189.844 112.876C190.19 113.275 190.496 113.643 190.76 113.979C191.097 114.306 191.289 114.651 191.335 115.015C191.391 115.451 191.065 116.084 190.357 116.913C187.344 119.957 185.234 122.554 184.029 124.703C183.422 125.742 182.896 126.548 182.451 127.122C181.997 127.623 181.516 127.906 181.007 127.971C180.497 128.035 179.869 127.745 179.122 127.101C177.382 125.622 176.033 124.611 175.077 124.067C174.184 123.441 173.156 123.202 171.992 123.35C170.173 123.582 168.452 124.577 166.827 126.335C165.276 128.085 164.108 130.821 163.324 134.543C162.531 138.192 162.486 142.781 163.189 148.31C163.874 153.693 165.183 157.888 167.118 160.895C169.116 163.819 171.175 165.775 173.297 166.762C175.491 167.74 177.316 168.137 178.77 167.952C180.08 167.785 181.37 167.178 182.642 166.129C183.904 165.008 184.979 163.873 185.868 162.725C185.995 162.561 186.181 162.279 186.426 161.878C186.743 161.468 187.047 161.244 187.338 161.207C187.702 161.161 188.157 161.251 188.703 161.477L198.631 165.427C198.94 165.536 199.404 165.698 200.023 165.915C200.706 166.05 201.17 166.213 201.416 166.404C201.735 166.585 201.917 166.857 201.963 167.221C202.01 167.585 201.951 167.999 201.789 168.463C200.53 171.358 198.372 174.442 195.313 177.713C192.255 180.985 187.707 183.005 181.669 183.772ZM228.866 177.662C223.556 178.337 219.166 177.823 215.697 176.12C212.228 174.418 210.151 170.875 209.467 165.491C209.386 161.953 211.641 159.042 216.229 156.759C220.818 154.475 226.095 152.954 232.06 152.196C233.952 151.956 236.189 151.523 238.77 150.9C241.352 150.276 243.735 149.825 245.917 149.548C244.627 141.728 243.337 135.645 242.045 131.3C240.817 126.873 239.223 123.638 237.263 121.596C235.376 119.544 232.941 118.708 229.959 119.087C227.776 119.364 225.768 120.137 223.933 121.405C222.098 122.673 219.864 124.584 217.232 127.136C215.053 129.187 213.964 130.213 213.964 130.213C213.891 130.222 213.655 130.4 213.255 130.746C212.919 131.011 212.565 131.13 212.192 131.103C211.519 131.041 211.15 130.755 211.085 130.246C210.739 129.846 210.25 128.91 209.619 127.438C209.061 125.957 208.741 124.889 208.658 124.234C208.602 123.797 208.974 123.233 209.773 122.54C213.132 119.304 216.001 116.869 218.381 115.236C220.824 113.521 222.932 112.366 224.704 111.771C226.549 111.167 228.709 110.708 231.182 110.393C238.457 109.468 243.631 111.213 246.706 115.627C249.844 119.96 251.908 126.018 252.897 133.802C253.156 135.839 253.435 138.612 253.733 142.123C254.001 144.232 254.249 147.343 254.476 151.454L254.699 154.086L255.627 160.511C256.142 163.402 256.497 165.612 256.691 167.139L256.998 170.427C257.066 172.119 256.517 173.038 255.353 173.186L254.466 173.188L249.992 173.757C249.701 173.794 249.397 173.722 249.078 173.541C248.823 173.277 248.672 172.964 248.626 172.6L248.515 171.727C244.307 173.519 240.926 174.835 238.372 175.678C235.818 176.52 232.649 177.181 228.866 177.662ZM228.185 171.428C235.969 170.439 242.459 168.283 247.655 164.962L246.692 154.772C243.236 154.915 240.271 155.144 237.798 155.459L231.373 156.386C227.881 156.83 224.841 157.919 222.252 159.652C219.654 161.313 218.399 163.358 218.486 165.786C218.819 168.405 219.664 170.109 221.021 170.897C222.377 171.686 224.765 171.863 228.185 171.428ZM290.195 169.645C287.794 169.95 285.302 169.823 282.717 169.264C280.133 168.706 277.83 168.038 275.809 167.26C273.852 166.4 272.668 165.811 272.258 165.493C271.529 164.994 271.315 164.467 271.614 163.912C271.831 163.293 272.229 162.355 272.808 161.099C273.388 159.842 273.823 159.196 274.114 159.159L274.332 159.131C274.478 159.112 274.628 159.13 274.783 159.185C274.937 159.239 275.142 159.398 275.398 159.661C275.644 159.851 275.931 160.074 276.259 160.328C277.161 161.026 278.945 161.686 281.611 162.308C284.278 162.93 286.411 163.14 288.011 162.936C288.375 162.89 289.653 162.765 291.845 162.56C294.109 162.346 295.913 161.415 297.255 159.765C298.662 158.034 299.166 155.605 298.768 152.476C298.509 150.439 297.414 148.804 295.484 147.571C293.625 146.329 290.821 144.912 287.07 143.318L282.714 141.322C278.208 139.603 274.547 137.555 271.731 135.178C268.979 132.718 267.326 129.306 266.771 124.941C266.031 119.122 267.454 114.321 271.039 110.538C274.624 106.756 279.472 104.477 285.582 103.7C290.893 103.025 294.955 103.58 297.77 105.366C300.648 107.07 302.169 107.986 302.333 108.113C302.961 108.403 303.307 108.802 303.372 109.311C303.4 109.53 303.318 109.762 303.128 110.008C303.01 110.244 302.598 111.073 301.891 112.493C301.248 113.832 300.745 114.524 300.381 114.57C300.09 114.607 299.667 114.476 299.112 114.177L298.387 113.715C298.223 113.588 296.985 112.858 294.672 111.526C292.359 110.194 289.711 109.717 286.728 110.096C282.363 110.651 279.223 111.827 277.308 113.622C275.392 115.418 274.615 117.735 274.975 120.572C275.271 122.9 276.435 124.785 278.466 126.227C280.498 127.669 283.056 128.896 286.142 129.908L289.131 130.748C292.335 131.524 295.152 132.459 297.583 133.555C300.086 134.641 302.387 136.456 304.484 138.998C306.645 141.459 307.994 144.798 308.53 149.018C309.418 156.002 307.95 161.03 304.127 164.103C300.368 167.095 295.724 168.942 290.195 169.645ZM348.891 162.405C338.488 163.728 330.961 161.506 326.31 155.739C321.659 149.973 318.663 141.816 317.322 131.267C316.629 125.811 317.1 120.503 318.736 115.342C320.435 110.099 323.059 105.737 326.608 102.255C330.23 98.7637 334.442 96.7129 339.243 96.1025C345.063 95.3627 350.005 96.7305 354.069 100.206C358.133 103.681 361.276 108.345 363.499 114.198C365.785 119.97 367.348 126.165 368.19 132.785C368.327 133.285 368.187 133.636 367.769 133.837C367.351 134.038 366.487 134.221 365.178 134.388C362.832 134.538 360.931 134.706 359.476 134.891C357.075 135.196 353.92 135.671 350.01 136.316L347.187 136.786L343.477 137.257C338.311 137.914 334.96 138.303 333.423 138.424C329.932 138.868 327.381 139.155 325.771 139.286C327.04 145.778 329.451 150.498 333.004 153.447C336.622 156.314 341.522 157.354 347.705 156.568C350.979 156.152 354.105 154.867 357.084 152.715C360.054 150.489 362.059 147.943 363.099 145.075C363.163 144.993 363.267 144.943 363.413 144.924C363.776 144.878 364.245 145.077 364.819 145.522C365.457 145.884 365.935 146.156 366.253 146.338C367.118 146.745 367.751 147.071 368.152 147.316C368.553 147.561 368.822 147.933 368.959 148.433C367.301 151.675 364.615 154.677 360.901 157.441C357.259 160.196 353.256 161.85 348.891 162.405ZM347.622 129.744C349.586 129.495 351.51 129.213 353.392 128.9C355.338 128.505 357.711 127.982 360.511 127.33C358.767 120.011 356.244 113.827 352.941 108.776C349.71 103.717 346.058 101.446 341.984 101.964C338.492 102.408 335.376 104.06 332.635 106.922C329.885 109.711 327.795 113.34 326.368 117.809C324.94 122.278 324.413 127.15 324.788 132.425C325.297 132.361 325.993 132.309 326.875 132.271C327.748 132.16 328.98 131.966 330.572 131.69L347.622 129.744ZM416.257 153.399C415.966 153.436 415.493 153.496 414.838 153.579C414.256 153.653 413.883 153.626 413.719 153.499C413.555 153.372 413.445 153.091 413.39 152.654L413.055 149.148L411.456 134.826L408.762 111.882C408.484 109.7 408.001 104.734 407.312 96.9862C407.153 95.1582 406.888 92.1981 406.515 88.1057C406.134 83.9405 405.824 81.5035 405.586 80.7945L405.186 78.5168C404.945 76.6254 405.407 75.6057 406.571 75.4577L410.622 75.0536C411.35 74.9611 411.778 75.4241 411.908 76.4426C411.954 76.8063 411.973 77.2475 411.965 77.7659C411.948 78.2117 411.967 78.6528 412.022 79.0893C412.008 80.7175 412.348 84.8508 413.044 91.4894C413.303 93.5264 413.814 98.71 414.577 107.04C415.304 115.079 415.778 119.972 416 121.718C416.536 125.937 417.288 131.275 418.257 137.731C419.216 144.115 419.847 147.915 420.15 149.134C420.278 149.561 420.379 150.065 420.453 150.647C420.518 151.157 420.455 151.534 420.265 151.78C420.147 152.017 419.92 152.268 419.584 152.532C419.184 152.879 418.075 153.167 416.257 153.399ZM467.238 146.142C466.147 146.281 465.464 146.146 465.19 145.737C464.98 145.246 464.814 144.232 464.693 142.695C464.388 140.295 464.06 138.008 463.71 135.834L461.786 122.44C461.527 120.403 461.331 118.284 461.199 116.083C461.058 113.81 460.913 111.795 460.764 110.04C460.462 104.756 460.177 101.059 459.908 98.9494L457.519 78.4067L456.661 72.528C456.337 69.9818 456.334 68.5037 456.652 68.0938C456.842 67.8478 457.083 67.7063 457.374 67.6693C457.519 67.6508 457.783 67.6912 458.165 67.7905C458.538 67.817 458.943 67.8025 459.38 67.747L462.749 67.2079C464.131 67.0322 465.158 66.9755 465.832 67.0377C466.514 67.1728 467.056 67.6583 467.458 68.4942C467.851 69.2575 468.226 70.1708 468.583 71.2343C468.931 72.225 469.214 73.0022 469.434 73.5656C470.047 75.4836 471.23 78.1053 472.984 81.4308C474.81 84.747 476.508 87.6359 478.077 90.0976C479.318 91.7141 481.024 94.3802 483.197 98.0959C485.433 101.73 487.058 104.628 488.072 106.791C488.656 107.899 489.46 109.275 490.482 110.92L492.618 114.64L495.562 119.477C497.144 115.063 498.288 111.849 498.993 109.838L504.283 94.7502L507.945 84.305C509.826 78.7435 511.105 75.1435 511.784 73.5048C512.806 70.4919 513.928 67.688 515.15 65.0932C516.363 62.4255 517.297 61.0501 517.952 60.9669C518.534 60.8929 518.885 61.3288 519.005 62.2745C519.116 63.1475 519.083 64.3346 518.904 65.8358L518.814 68.6193C518.773 70.6205 519.737 79.3687 521.707 94.864C522.141 98.2832 522.559 102.444 522.961 107.346C523.435 112.238 523.701 115.494 523.759 117.113C523.853 119.023 524.137 121.833 524.608 125.543L526.063 136.114L526.132 136.66C526.243 137.533 526.071 137.924 525.616 137.834L525.398 137.862C525.034 137.908 524.602 138 524.102 138.137C523.675 138.266 523.207 138.362 522.698 138.427C522.398 138.391 522.156 138.237 521.974 137.964C521.864 137.683 521.763 137.178 521.67 136.451L520.852 130.012C519.909 122.592 519.427 118.218 519.406 116.89C519.357 115.344 519.142 112.488 518.76 108.323C518.451 104.149 518.135 100.788 517.811 98.2422C517.656 97.5967 517.433 95.5551 517.144 92.1175L516.754 88.1752L515.973 80.2907C515.556 81.0829 515.217 81.9022 514.955 82.7487C514.385 84.0779 513.865 85.5116 513.395 87.0498L512.581 89.3709C511.65 91.9288 510.592 94.9463 509.407 98.4234C508.214 101.828 507.178 104.731 506.301 107.135C505.324 109.92 504.081 113.515 502.571 117.921C501.125 122.245 500.009 125.676 499.223 128.215C497.895 132.894 497.086 135.251 496.795 135.288C496.577 135.316 496.203 134.994 495.674 134.322C495.145 133.65 494.794 133.214 494.621 133.014C494.01 132.279 492.997 130.707 491.582 128.3C490.158 125.819 488.994 123.639 488.09 121.758C487.487 120.504 485.128 117.07 481.014 111.458C477.757 106.771 476.078 104.323 475.978 104.114C475.066 102.752 473.774 100.44 472.102 97.1776C471.071 95.4606 470.249 93.9388 469.637 92.612L470.029 97.4411L470.754 104.889L473.268 126.414L475.323 143.451C475.406 144.106 475.275 144.529 474.93 144.721C474.585 144.912 474.158 145.04 473.648 145.105C473.13 145.097 472.725 145.112 472.434 145.149L470.047 145.563C468.756 145.875 467.82 146.068 467.238 146.142ZM558.082 135.814C552.771 136.489 548.381 135.975 544.912 134.272C541.443 132.57 539.367 129.026 538.682 123.643C538.602 120.105 540.856 117.194 545.445 114.911C550.034 112.627 555.311 111.106 561.276 110.348C563.168 110.107 565.404 109.675 567.986 109.051C570.568 108.428 572.95 107.977 575.133 107.699C573.843 99.8797 572.552 93.7972 571.261 89.452C570.033 85.0249 568.439 81.7901 566.479 79.7476C564.592 77.6958 562.157 76.8595 559.174 77.2387C556.992 77.5161 554.983 78.2889 553.149 79.557C551.314 80.8252 549.08 82.7354 546.448 85.2877C544.269 87.3389 543.18 88.3644 543.18 88.3644C543.107 88.3737 542.871 88.5515 542.471 88.898C542.135 89.1625 541.781 89.2815 541.408 89.2549C540.734 89.1927 540.366 88.9069 540.301 88.3977C539.954 87.9982 539.466 87.0623 538.835 85.5901C538.277 84.1086 537.957 83.0405 537.873 82.3858C537.818 81.9493 538.19 81.3846 538.989 80.6916C542.347 77.4556 545.217 75.021 547.596 73.3879C550.04 71.6728 552.147 70.5178 553.92 69.9229C555.765 69.3187 557.924 68.8594 560.398 68.545C567.673 67.6203 572.847 69.365 575.922 73.7792C579.06 78.1114 581.123 84.1695 582.113 91.9536C582.372 93.9905 582.651 96.7642 582.949 100.275C583.217 102.384 583.465 105.495 583.691 109.605L583.915 112.238L584.843 118.663C585.358 121.554 585.713 123.764 585.907 125.291L586.214 128.579C586.281 130.27 585.733 131.19 584.569 131.338L583.682 131.34L579.208 131.909C578.917 131.946 578.612 131.874 578.294 131.692C578.038 131.429 577.888 131.116 577.841 130.752L577.73 129.879C573.523 131.671 570.142 132.987 567.588 133.829C565.033 134.672 561.865 135.333 558.082 135.814ZM557.4 129.58C565.184 128.591 571.674 126.435 576.87 123.113L575.908 112.923C572.452 113.067 569.487 113.296 567.013 113.611L560.589 114.538C557.097 114.982 554.057 116.071 551.468 117.804C548.87 119.465 547.615 121.51 547.702 123.938C548.034 126.557 548.879 128.261 550.236 129.049C551.593 129.838 553.981 130.015 557.4 129.58ZM603.927 128.988C603.418 129.053 603.113 128.981 603.013 128.772C602.903 128.49 602.793 127.913 602.682 127.04L599.771 105.011L598.689 96.4997C597.782 89.3704 597.21 85.1556 596.97 83.8554C596.805 83.1372 596.626 82.0142 596.431 80.4865L593.406 55.8111L592.613 48.7043C592.548 48.195 592.807 47.9034 593.389 47.8294C593.753 47.7832 594.085 47.778 594.385 47.8137C594.758 47.8402 595.09 47.835 595.381 47.798L605.652 46.6033C606.234 46.5293 606.612 46.5922 606.785 46.7919C607.031 46.9824 607.182 47.2959 607.237 47.7324C607.265 47.9506 607.321 48.3871 607.404 49.0419C607.55 49.6146 607.716 50.6284 607.901 52.0834L609.074 64.797C609.607 71.8998 610.04 76.7607 610.373 79.3796L611.122 85.2722C611.326 86.8726 611.524 88.1411 611.717 89.0776L613.552 86.0721L616.271 81.2911C616.815 80.3349 617.785 78.9549 619.182 77.151C621.431 73.9081 622.796 71.8496 623.276 70.9754C623.521 70.5747 623.793 70.0966 624.092 69.5411C624.464 68.9764 624.831 68.3753 625.193 67.7378C627.161 64.6048 628.216 62.7334 628.361 62.1236C628.432 61.5231 628.645 61.1634 629 61.0444C629.418 60.8434 629.809 60.7198 630.172 60.6736C630.536 60.6274 630.754 60.5996 630.827 60.5904C631.409 60.5164 632.023 60.4014 632.668 60.2454C633.386 60.0802 634.032 59.9243 634.605 59.7775L634.932 59.7359C636.023 59.5972 636.597 59.7461 636.652 60.1826C636.689 60.4736 636.413 60.9153 635.823 61.5078L627.704 74.4045C627.242 75.4242 626.059 77.4596 624.156 80.5106C622.252 83.5617 620.806 85.8524 619.818 87.3825C619.138 88.43 618.376 89.7095 617.533 91.2212C616.763 92.7236 616.392 93.584 616.42 93.8022C616.457 94.0932 616.803 94.4927 617.459 95.0007C618.106 95.436 618.639 95.8487 619.058 96.239L621.068 98.0903C626.272 102.973 629.284 105.732 630.104 106.367L631.99 108.123C632.318 108.377 633.12 109.162 634.396 110.479C635.663 111.722 636.943 112.779 638.237 113.65C640.104 114.965 642.095 116.67 644.21 118.767C646.325 120.864 647.505 122.008 647.751 122.198C647.896 122.18 647.983 122.279 648.011 122.498C648.048 122.789 647.857 123.035 647.439 123.236C647.085 123.355 646.685 123.405 646.239 123.388L638.41 124.605L637.864 124.675C636.555 124.841 635.531 124.638 634.793 124.067L630.72 120.815C630.219 120.361 629.504 119.676 628.574 118.759C627.708 117.76 626.701 116.816 625.553 115.927C624.897 115.419 623.931 114.507 622.655 113.191C622.071 112.674 621.406 112.093 620.659 111.449C619.975 110.722 619.26 110.037 618.513 109.393L614.085 105.964L615.541 117.422L616.342 121.977L617.074 125.987C617.148 126.569 617.048 126.951 616.776 127.133C616.576 127.307 616.331 127.412 616.04 127.449C615.822 127.476 615.676 127.495 615.603 127.504C615.021 127.578 614.285 127.598 613.393 127.563C612.511 127.602 611.633 127.676 610.76 127.787L606.751 128.519L603.927 128.988ZM681.304 120.151C670.901 121.473 663.374 119.251 658.723 113.485C654.072 107.719 651.076 99.5614 649.735 89.013C649.042 83.5569 649.513 78.2484 651.148 73.0876C652.847 67.8449 655.471 63.4825 659.021 60.0004C662.643 56.5092 666.854 54.4584 671.656 53.8481C677.476 53.1083 682.418 54.476 686.482 57.9513C690.546 61.4266 693.689 66.0908 695.911 71.9439C698.197 77.715 699.761 83.9106 700.603 90.5307C700.74 91.0307 700.6 91.3812 700.182 91.5821C699.764 91.7831 698.9 91.9668 697.591 92.1333C695.244 92.2837 693.343 92.4514 691.888 92.6363C689.488 92.9415 686.333 93.4165 682.423 94.0614L679.599 94.5311L675.889 95.0027C670.724 95.6593 667.373 96.0483 665.836 96.1697C662.344 96.6136 659.793 96.9009 658.184 97.0316C659.452 103.523 661.864 108.244 665.417 111.192C669.034 114.059 673.934 115.1 680.118 114.314C683.392 113.897 686.518 112.613 689.497 110.46C692.467 108.235 694.472 105.688 695.512 102.821C695.575 102.739 695.68 102.689 695.825 102.67C696.189 102.624 696.658 102.823 697.232 103.267C697.869 103.63 698.347 103.902 698.666 104.083C699.531 104.491 700.164 104.817 700.565 105.061C700.965 105.306 701.234 105.679 701.372 106.179C699.714 109.42 697.028 112.423 693.313 115.187C689.672 117.941 685.668 119.596 681.304 120.151ZM680.035 87.49C681.999 87.2403 683.922 86.9589 685.804 86.6457C687.75 86.2505 690.123 85.7271 692.923 85.0755C691.18 77.7569 688.657 71.5724 685.353 66.522C682.123 61.4623 678.471 59.1914 674.397 59.7092C670.905 60.1531 667.788 61.8059 665.047 64.6677C662.297 67.4568 660.208 71.0859 658.78 75.5549C657.352 80.024 656.826 84.8959 657.201 90.1708C657.71 90.1061 658.406 90.0546 659.288 90.0164C660.161 89.9054 661.393 89.7118 662.984 89.4356L680.035 87.49ZM748.669 111.144C748.378 111.181 747.905 111.241 747.251 111.324C746.669 111.398 746.296 111.372 746.132 111.245C745.968 111.118 745.858 110.836 745.802 110.4L745.468 106.894L743.869 92.5711L741.174 69.6277C740.897 67.4453 740.413 62.48 739.724 54.7317C739.566 52.9037 739.3 49.9436 738.928 45.8512C738.546 41.6861 738.237 39.249 737.999 38.54L737.598 36.2623C737.358 34.3709 737.82 33.3512 738.984 33.2032L743.035 32.7991C743.762 32.7067 744.191 33.1697 744.32 34.1881C744.367 34.5519 744.386 34.993 744.378 35.5115C744.36 35.9572 744.38 36.3983 744.435 36.8348C744.42 38.463 744.761 42.5964 745.457 49.2349C745.716 51.2719 746.227 56.4555 746.99 64.7857C747.716 72.825 748.19 77.7176 748.412 79.4635C748.949 83.6829 749.701 89.0207 750.67 95.4767C751.629 101.86 752.26 105.661 752.563 106.879C752.691 107.306 752.792 107.811 752.866 108.393C752.931 108.902 752.868 109.28 752.677 109.526C752.559 109.762 752.333 110.013 751.997 110.278C751.597 110.624 750.488 110.913 748.669 111.144ZM777.034 107.206C774.124 107.576 771.886 107.417 770.321 106.729C768.755 106.041 767.656 104.96 767.026 103.488C766.386 101.943 765.895 99.8249 765.552 97.1332L764.802 90.3538L763.71 77.408L762.817 67.7637L760.792 51.8319C757.3 52.2758 755.226 51.9481 754.568 50.8488C754.276 50.2946 754.088 49.6901 754.005 49.0354C753.913 48.3079 753.861 47.6122 753.851 46.9482C753.913 46.275 753.907 45.6474 753.833 45.0654C755.152 44.9717 757.157 44.7538 759.849 44.4116L759.902 43.9612L759.484 39.8007L758.888 35.1085C758.593 33.3718 758.554 32.194 758.771 31.575C759.052 30.874 759.52 30.4819 760.174 30.3987C760.538 30.3525 760.834 30.3518 761.061 30.3968L761.279 30.3691C761.425 30.3506 761.68 30.3182 762.043 30.272C762.398 30.153 762.73 30.1478 763.039 30.2563C764.522 30.2896 765.328 30.8155 765.458 31.8339C765.485 32.0522 765.519 32.898 765.558 34.3715C765.518 36.9639 765.652 40.0517 765.96 43.6348L776.435 42.3032C777.017 42.2292 777.555 42.6784 778.048 43.6506C778.532 44.5501 778.843 45.5454 778.982 46.6367C779.167 48.0916 778.946 48.9698 778.319 49.2713C776.992 49.8835 775.347 50.3144 773.383 50.5641C771.637 50.786 769.436 50.918 766.78 50.9599L770.067 76.8218L770.513 81.2005C770.655 84.0654 770.921 87.0256 771.309 90.081L771.587 92.2634C771.882 94.5914 772.614 96.2726 773.78 97.3071C774.937 98.2689 776.352 98.6434 778.026 98.4307C779.626 98.2273 781.004 98.0152 782.158 97.7945C783.304 97.501 784.131 97.3219 784.64 97.2572C785.441 97.1555 786.021 98.5232 786.382 101.36L787.04 103.051C787.323 103.532 787.324 103.828 787.042 103.938C784.825 105.107 783.149 105.874 782.012 106.24C780.949 106.597 779.289 106.919 777.034 107.206ZM360.948 292.715C360.075 292.826 359.547 292.745 359.365 292.473C359.182 292.2 359.045 291.7 358.952 290.973C358.851 290.173 358.777 289.591 358.73 289.227L357.447 275.64C356.385 263.8 355.642 256.206 355.216 252.86C354.976 250.968 354.543 248.14 353.916 244.376L353.072 238.606C347.834 239.272 342.533 240.02 337.168 240.85L333.799 241.389C332.853 241.509 332.166 241.338 331.738 240.875C331.309 240.412 331.162 239.839 331.297 239.156L331.06 236.414C330.669 232.177 330.247 228.275 329.794 224.711C329.572 222.965 329.401 221.915 329.282 221.56L329.185 220.796C329.084 219.996 329.169 219.505 329.442 219.322C329.787 219.13 330.287 218.993 330.942 218.91L341.745 217.536L347.842 216.651C351.606 216.024 354.252 215.614 355.78 215.42L362.341 214.697C367.597 214.176 371.717 213.727 374.699 213.347C376.882 213.07 378.296 212.853 378.941 212.697C380.532 212.421 381.692 212.532 382.421 213.031C383.141 213.457 383.542 213.998 383.625 214.652C383.671 215.016 383.719 215.971 383.768 217.517C383.889 219.054 384.093 220.95 384.38 223.205C384.639 225.242 385.099 227.993 385.761 231.457C386.011 233.421 384.863 234.565 382.317 234.889L363.111 237.33L364.322 248.597C364.406 249.843 364.763 252.94 365.391 257.887C366.039 262.979 366.704 267.921 367.387 272.713C368.07 277.505 368.634 281.647 369.077 285.139L369.755 289.6L369.825 290.145C369.908 290.8 369.85 291.214 369.65 291.387C369.523 291.551 369.314 291.652 369.023 291.689C368.732 291.726 368.514 291.753 368.368 291.772L360.948 292.715ZM422.141 287.376C412.538 288.597 405.669 285.737 401.534 278.796C397.39 271.783 394.782 264.056 393.709 255.618C392.673 247.47 393.082 240.802 394.936 235.613C396.781 230.352 399.324 226.517 402.566 224.109C405.881 221.692 409.321 220.257 412.886 219.804C419.579 218.953 424.861 220.093 428.733 223.223C432.596 226.28 435.311 230.185 436.876 234.939C438.432 239.62 439.594 244.98 440.361 251.018C440.981 255.892 440.787 261.055 439.78 266.505C438.836 271.874 436.881 276.558 433.915 280.557C431.012 284.474 427.087 286.747 422.141 287.376ZM418.686 266.303C421.086 265.998 422.689 264.649 423.494 262.255C424.371 259.852 424.606 257.05 424.199 253.849C423.672 249.702 422.757 246.862 421.453 245.327C420.212 243.711 418.537 243.036 416.428 243.305C411.917 243.878 410.18 248.239 411.216 256.386C411.604 259.442 412.328 261.937 413.387 263.872C414.446 265.807 416.212 266.618 418.686 266.303ZM476.603 279.788C472.602 280.296 468.943 279.431 465.628 277.191C462.385 274.942 459.663 271.555 457.461 267.03C455.333 262.495 453.875 257.136 453.089 250.953C452.904 249.498 452.491 245.374 451.849 238.58C451.754 236.67 451.665 235.388 451.582 234.733L451.195 232.565C451.02 231.182 450.747 229.332 450.379 227.013C450.001 224.622 449.581 221.607 449.118 217.97C449.054 217.461 449.38 217.124 450.099 216.958C451.899 216.582 454.104 216.191 456.713 215.785C459.396 215.37 461.828 215.024 464.011 214.746C464.593 214.672 464.97 214.735 465.144 214.935C465.308 215.062 465.417 215.344 465.473 215.78L465.599 217.649L466 219.927C466.24 221.818 466.381 223.796 466.421 225.861C466.453 227.853 466.501 229.104 466.566 229.613C466.788 231.359 467.17 233.491 467.711 236.009C467.914 237.019 468.134 238.173 468.374 239.474C468.613 240.774 468.825 242.151 469.01 243.606L469.927 251.695C470.5 256.206 471.458 259.374 472.799 261.199C474.13 262.952 476.324 263.634 479.379 263.246C480.325 263.125 481.425 262.764 482.679 262.161C483.996 261.476 485.118 260.705 486.044 259.848C485.7 256.565 485.293 253.069 484.821 249.358C484.599 247.613 484.432 246.007 484.32 244.543C484.208 243.079 484.119 241.797 484.053 240.696C483.883 237.613 483.627 234.726 483.284 232.034C483.146 230.943 482.737 228.888 482.057 225.87C481.322 222.415 480.844 219.814 480.622 218.068C480.585 217.777 480.466 217.127 480.263 216.118C480.125 215.027 480.205 214.203 480.504 213.648C480.794 213.02 481.339 212.655 482.139 212.553C482.43 212.516 483.167 212.496 484.349 212.494C485.604 212.482 486.85 212.398 488.087 212.24C489.469 212.065 490.665 211.876 491.674 211.674C492.756 211.462 493.588 211.319 494.17 211.245C495.261 211.107 495.862 211.474 495.973 212.347C495.982 212.42 495.969 212.606 495.933 212.906C495.961 213.125 496.012 213.525 496.086 214.107L497.069 220.967C498.544 230.242 499.545 236.953 500.072 241.1L500.587 246.024L501.847 255.067C502.64 260.141 503.194 263.915 503.508 266.388C503.832 268.934 504.022 270.721 504.079 271.749L504.382 273.263C504.493 274.136 504.257 274.609 503.675 274.683C503.166 274.748 502.434 274.804 501.479 274.851C500.524 274.899 499.355 275.011 497.973 275.186L493.186 275.906C492.54 276.062 491.781 276.195 490.908 276.306C490.544 276.352 490.208 276.321 489.898 276.213C489.652 276.022 489.511 275.781 489.474 275.49L488.899 274.455C487.455 275.895 485.861 277.022 484.117 277.835C482.381 278.721 479.877 279.372 476.603 279.788ZM521.65 272.287C520.559 272.426 519.958 272.059 519.847 271.186L517.198 250.344L516.033 241.177L512.857 210.09C512.755 209.29 512.882 208.83 513.236 208.711C513.509 208.528 514.336 208.349 515.718 208.174C518.483 207.822 520.02 207.701 520.329 207.809C520.547 207.782 520.748 207.904 520.93 208.176C521.176 208.367 521.308 208.535 521.327 208.68L521.703 212.514L526.255 209.939C533.059 205.895 537.007 203.804 538.098 203.666L538.208 203.652C538.717 203.587 539.2 204.191 539.658 205.463C539.861 207.064 540.055 208.296 540.238 209.16C540.34 209.96 540.51 210.714 540.748 211.423L541.162 213.81L541.19 214.028C541.227 214.319 541.155 214.624 540.974 214.943C540.792 215.262 540.633 215.467 540.497 215.558C538.243 216.436 535.794 217.228 533.148 217.934C530.566 218.558 529.062 218.934 528.634 219.062L522.525 220.725L524.481 236.112L525.092 240.913L526.031 246.56C526.299 248.669 526.489 250.456 526.602 251.92C526.689 254.349 526.931 257.127 527.328 260.255L527.8 263.965C528.262 267.603 528.404 269.877 528.224 270.787C528.288 271.296 527.739 271.624 526.575 271.772L521.65 272.287ZM587.093 263.858C585.71 264.034 584.968 263.721 584.867 262.921C584.802 262.412 584.919 261.879 585.218 261.324C585.508 260.696 585.807 260.14 586.115 259.658C586.487 259.093 586.768 258.687 586.959 258.442C587.267 257.959 589.397 254.657 593.351 248.536C597.376 242.406 600.481 237.466 602.666 233.713L604.869 230.107C607.434 225.863 609.545 222.12 611.203 218.878C612.925 215.555 614.413 211.854 615.669 207.777C616.247 205.929 616.388 203.841 616.092 201.513C615.649 198.021 614.079 195.56 611.384 194.128C608.761 192.687 605.958 192.157 602.976 192.536C600.139 192.896 597.807 193.451 595.98 194.201C594.217 194.869 592.268 195.819 590.133 197.051C588.97 197.79 587.599 198.926 586.019 200.457C584.512 201.979 583.591 202.873 583.255 203.137L582.737 203.425C582.592 203.443 582.401 203.394 582.164 203.276C581.991 203.076 581.827 202.949 581.672 202.895C581.344 202.641 580.989 202.464 580.607 202.365C580.215 202.193 579.896 202.012 579.65 201.821C579.395 201.558 579.222 201.358 579.131 201.222C579.112 201.076 579.189 200.808 579.361 200.416C580.439 198.431 581.963 196.168 583.931 193.626C584.693 192.642 586.146 191.275 588.289 189.524C590.504 187.764 592.816 186.176 595.223 184.761C597.704 183.337 599.853 182.509 601.672 182.278C605.018 181.853 608.103 182.274 610.925 183.541C613.747 184.809 616.016 186.664 617.731 189.108C619.51 191.469 620.579 194.068 620.94 196.905C621.338 200.033 621.153 202.94 620.385 205.625C619.618 208.31 618.414 211.346 616.775 214.733C616.657 214.97 616.191 215.953 615.376 217.683C614.344 220.032 611.852 224.562 607.9 231.274C603.948 237.986 601.718 241.67 601.21 242.326C600.893 242.736 600.612 243.141 600.367 243.542C600.122 243.943 600.181 244.12 600.545 244.074C600.763 244.046 601.277 244.017 602.087 243.988C602.96 243.878 604.451 243.688 606.561 243.42C608.234 243.207 609.502 243.009 610.366 242.825C617.714 241.891 623.224 241.043 626.897 240.28C628.479 239.931 629.484 239.988 629.913 240.451C630.332 240.842 630.547 241.369 630.557 242.033C630.631 242.615 630.682 243.015 630.71 243.233L632.18 254.8C632.356 256.182 632.176 257.092 631.64 257.53C631.095 257.895 629.986 258.184 628.313 258.396C626.785 258.591 625.444 258.798 624.289 259.019L615.901 260.196C613.791 260.464 612.404 260.603 611.74 260.614L594.485 262.696C590.921 263.149 588.961 263.436 588.606 263.555C588.325 263.664 587.82 263.765 587.093 263.858ZM665.291 253.585C658.48 254.081 654.104 253.972 652.165 253.258C650.226 252.543 648.003 250.46 645.494 247.009C643.068 243.621 641.246 240.341 640.03 237.169C638.968 234.052 637.748 227.073 636.371 216.234C635.566 209.905 635.191 204.334 635.244 199.522C635.298 194.711 636.045 190.698 637.484 187.484C639.178 183.942 641.528 181.204 644.534 179.269C647.677 177.243 652.336 175.801 658.51 174.942C666.661 175.089 672.296 177.256 675.415 181.443C678.535 185.629 680.641 190.277 681.734 195.387C682.818 200.424 683.79 206.325 684.65 213.091C685.537 220.074 685.855 226.355 685.603 231.931C685.461 237.789 683.606 242.682 680.04 246.61C676.537 250.455 671.62 252.78 665.291 253.585ZM667.896 246.157C670.005 245.889 672.195 244.798 674.465 242.883C676.735 240.968 678.526 238.486 679.839 235.436C681.278 232.222 681.894 228.632 681.686 224.667C681.646 223.193 681.474 221.256 681.169 218.856L680.877 216.564C680.822 216.128 680.726 215.659 680.588 215.159C680.514 214.577 680.476 213.991 680.475 213.4C680.269 210.617 679.88 206.97 679.306 202.46C679.01 200.132 678.601 198.077 678.079 196.295C677.621 194.431 677.332 193.322 677.213 192.968C676.36 189.75 674.775 186.588 672.459 183.482C671.665 182.474 670.681 181.712 669.507 181.196C668.332 180.68 667.081 180.432 665.753 180.453C664.134 180.511 662.888 180.595 662.015 180.706C661.288 180.799 660.06 181.029 658.333 181.396C655.787 181.72 653.447 182.794 651.313 184.617C650.45 185.392 649.752 186.294 649.217 187.323C648.746 188.27 648.19 189.708 647.548 191.638C646.572 194.423 646.278 197.344 646.666 200.399C646.934 202.509 647.192 204.25 647.441 205.623L648.743 214.994L650.307 225.551C650.915 229.17 651.48 231.87 652.002 233.652C652.524 235.433 653.332 236.846 654.426 237.89C655.756 239.051 656.996 240.372 658.145 241.853L660.087 244.045C661.874 245.888 664.476 246.592 667.896 246.157ZM664.676 219.954C663.221 220.139 661.878 219.755 660.648 218.803C659.491 217.841 658.783 216.342 658.524 214.305C658.247 212.122 658.535 210.607 659.388 209.76C660.314 208.903 661.577 208.372 663.178 208.169C666.888 207.697 669.043 209.826 669.644 214.555C669.811 215.864 669.372 217.066 668.328 218.159C667.275 219.18 666.058 219.778 664.676 219.954ZM700.579 249.432C699.197 249.608 698.455 249.295 698.354 248.495C698.289 247.986 698.406 247.454 698.705 246.898C698.995 246.27 699.294 245.714 699.602 245.232C699.974 244.667 700.255 244.262 700.445 244.016C700.754 243.533 702.884 240.231 706.837 234.111C710.863 227.981 713.968 223.04 716.153 219.288L718.355 215.681C720.921 211.437 723.032 207.694 724.69 204.453C726.411 201.129 727.9 197.428 729.156 193.351C729.734 191.503 729.875 189.415 729.579 187.087C729.135 183.596 727.566 181.134 724.87 179.702C722.248 178.262 719.445 177.731 716.462 178.11C713.625 178.47 711.293 179.026 709.467 179.775C707.703 180.443 705.754 181.393 703.619 182.625C702.457 183.365 701.086 184.5 699.506 186.031C697.999 187.553 697.078 188.447 696.742 188.711L696.224 188.999C696.079 189.017 695.887 188.968 695.651 188.85C695.477 188.65 695.313 188.523 695.159 188.469C694.831 188.215 694.476 188.038 694.093 187.939C693.702 187.767 693.383 187.586 693.137 187.395C692.882 187.132 692.709 186.932 692.617 186.796C692.599 186.651 692.676 186.382 692.848 185.991C693.926 184.005 695.449 181.742 697.418 179.2C698.18 178.216 699.632 176.849 701.775 175.098C703.991 173.338 706.303 171.75 708.71 170.335C711.19 168.911 713.34 168.084 715.159 167.852C718.505 167.427 721.589 167.848 724.412 169.116C727.234 170.383 729.503 172.239 731.218 174.682C732.997 177.043 734.066 179.642 734.427 182.479C734.825 185.608 734.64 188.514 733.872 191.199C733.104 193.884 731.901 196.92 730.262 200.307C730.144 200.544 729.678 201.527 728.862 203.257C727.83 205.606 725.339 210.136 721.387 216.848C717.435 223.56 715.205 227.244 714.697 227.9C714.379 228.31 714.098 228.715 713.854 229.116C713.609 229.517 713.668 229.694 714.032 229.648C714.25 229.62 714.764 229.592 715.574 229.563C716.447 229.452 717.938 229.262 720.048 228.994C721.721 228.781 722.989 228.583 723.853 228.399C731.201 227.465 736.711 226.617 740.384 225.854C741.966 225.506 742.971 225.563 743.4 226.026C743.819 226.416 744.034 226.943 744.044 227.607C744.118 228.189 744.169 228.589 744.197 228.807L745.667 240.374C745.843 241.756 745.663 242.666 745.127 243.104C744.582 243.469 743.473 243.758 741.8 243.971C740.272 244.165 738.931 244.372 737.776 244.593L729.388 245.77C727.278 246.038 725.891 246.178 725.227 246.188L707.972 248.271C704.407 248.724 702.448 249.01 702.093 249.129C701.811 249.238 701.307 249.34 700.579 249.432ZM757.323 242.219C755.941 242.395 755.199 242.083 755.097 241.282C755.032 240.773 755.149 240.241 755.448 239.685C755.738 239.057 756.037 238.502 756.345 238.019C756.717 237.454 756.998 237.049 757.189 236.803L761.771 229.235C768.062 218.825 771.516 213.137 772.132 212.172C772.259 212.008 772.817 211.161 773.805 209.631C776.589 205.359 778.904 201.479 780.753 197.992C782.674 194.495 784.207 190.567 785.353 186.207C785.913 184.214 786.078 182.308 785.846 180.49C785.55 178.162 784.583 176.363 782.943 175.093C781.558 174.086 779.974 173.252 778.189 172.592C776.405 171.932 774.786 171.694 773.331 171.879C770.494 172.24 768.162 172.795 766.335 173.544C764.572 174.212 762.623 175.162 760.488 176.395C759.243 177.07 757.483 179.216 755.207 182.832C754.464 183.961 754.024 184.572 753.888 184.663L753.37 184.95C753.224 184.969 753.033 184.919 752.796 184.802C752.623 184.602 752.459 184.475 752.304 184.421C752.058 184.23 751.224 183.19 749.801 181.301C749.145 180.793 748.867 180.348 748.966 179.966C749.501 178.937 750.855 176.51 753.03 172.685C754.491 170.799 755.879 169.218 757.195 167.942C758.502 166.593 759.915 165.49 761.432 164.632C765.284 162.368 768.774 161.037 771.902 160.639C775.248 160.214 778.333 160.635 781.155 161.903C783.978 163.17 786.246 165.026 787.961 167.469C789.74 169.83 790.81 172.429 791.17 175.266C791.503 177.885 791.454 180.405 791.022 182.826C790.591 185.246 790.067 187.234 789.452 188.791C788.827 190.275 787.764 192.665 786.261 195.961C785.573 197.527 783.353 201.579 779.6 208.118L777.521 211.82L774.177 217.789L769.989 224.974L767.366 229.632C767.048 230.042 766.767 230.448 766.522 230.848C766.278 231.249 766.337 231.426 766.701 231.38C766.846 231.362 767.397 231.329 768.352 231.281C769.37 231.152 771.298 230.907 774.135 230.546C776.463 230.25 778.095 230.006 779.032 229.813C788.125 228.657 794.508 227.697 798.182 226.935C799.764 226.586 800.769 226.643 801.197 227.106C801.616 227.496 801.831 228.023 801.842 228.687C801.916 229.269 801.967 229.669 801.994 229.888L802.052 231.211C802.124 231.202 802.244 231.852 802.411 233.161C802.586 234.543 802.406 235.453 801.87 235.891C801.325 236.256 800.216 236.545 798.543 236.758C797.015 236.952 795.674 237.159 794.52 237.38L786.131 238.557C784.021 238.825 782.634 238.965 781.971 238.975L764.715 241.058C761.151 241.511 759.191 241.797 758.837 241.916C758.555 242.026 758.05 242.127 757.323 242.219Z" fill="#E25F00"/>
<circle cx="239.5" cy="265.5" r="55.5" fill="#FFB986"/>
</svg>
