<svg width="799" height="185" viewBox="0 0 799 185" fill="none" xmlns="http://www.w3.org/2000/svg">
<path d="M32.3015 179.171C31.7922 179.236 31.369 179.105 31.0318 178.778C30.7673 178.442 30.4751 177.888 30.1551 177.115C29.7901 176.57 29.0173 174.562 27.8367 171.09C27.3978 169.963 26.7394 168.272 25.8615 166.018C24.9743 163.691 24.339 162.183 23.9556 161.492C23.0974 159.975 22.0376 157.744 20.7763 154.8C19.5056 151.783 18.7606 149.992 18.5411 149.429C17.7834 148.121 15.3658 142.477 11.2883 132.498C10.6761 131.172 10.1049 129.877 9.57472 128.613C9.03528 127.277 8.55533 126.119 8.13488 125.137L5.07672 117.653L1.55249 109.119C1.14128 108.211 0.903315 107.502 0.838583 106.992C0.810841 106.774 0.865095 106.619 1.00134 106.528C1.13759 106.437 1.31484 106.377 1.53308 106.35L4.91586 105.92C6.15258 105.762 7.02093 105.615 7.52092 105.478L8.69352 105.107C9.39325 104.796 9.87999 104.845 10.1537 105.254C10.5002 105.653 10.9068 106.526 11.3735 107.871C11.5929 108.434 12.6487 110.924 14.5407 115.341C16.4235 119.685 18.5153 123.929 20.8161 128.071C22.7439 132.188 24.4701 135.591 25.9947 138.28L28.4601 142.845L28.7163 141.371L29.4191 138.177C29.7712 136.876 30.265 133.782 30.9006 128.896L31.3039 125.962C31.4561 124.834 31.8473 122.677 32.4774 119.492C33.1075 116.308 33.6072 113.842 33.9765 112.094C34.2385 111.248 34.5224 109.992 34.8282 108.327C36.1093 103.285 37.1864 100.709 38.0593 100.598C38.5686 100.533 38.9052 100.564 39.0692 100.691C39.2332 100.818 39.3747 101.059 39.4936 101.413C39.6126 101.768 39.7224 102.05 39.8229 102.259C40.0423 102.822 40.312 103.49 40.632 104.263C40.9427 104.962 41.2309 105.776 41.4967 106.703C45.3683 113.899 47.6876 118.187 48.4545 119.568L52.7666 126.45L55.2857 130.565C55.3757 130.11 55.4796 129.764 55.5973 129.527L56.3418 126.66C56.4318 126.205 56.5332 124.677 56.646 122.075C56.7484 118.81 56.8936 116.463 57.0816 115.034C57.2697 113.606 57.6701 111.522 58.2829 108.783C58.9673 105.443 59.3128 103.219 59.3196 102.109C59.2869 99.5258 59.9981 98.1417 61.4531 97.9568C62.58 97.5178 63.871 97.2059 65.326 97.0209C66.0534 96.9284 66.5309 96.9047 66.7584 96.9497C67.6314 96.8387 68.1095 97.1106 68.1927 97.7654L68.1409 99.1026L67.5472 102.283C67.2877 104.312 67.0407 105.859 66.8065 106.923C66.6092 108.279 66.3715 109.899 66.0934 111.782C65.8154 113.665 65.542 115.585 65.2732 117.541C64.7275 121.972 64.2257 125.584 63.7676 128.378C63.553 130.179 63.4085 132.822 63.3339 136.306C63.25 139.717 63.2451 141.713 63.319 142.295C63.541 144.041 63.2999 146.216 62.5958 148.819C62.3708 149.956 62.1304 152.426 61.8745 156.229C61.6186 160.031 61.4648 162.601 61.413 163.938C61.2959 168.832 61.1242 171.552 60.8979 172.099C60.8806 172.544 60.8409 173.104 60.7786 173.777C60.7798 174.368 60.7262 174.819 60.6177 175.128C60.5819 175.428 60.4549 175.592 60.2367 175.62C59.6547 175.694 59.1997 175.604 58.8717 175.35C58.6165 175.087 58.2105 174.51 57.6538 173.62C56.9794 172.966 55.0395 169.628 51.8343 163.604C51.1586 162.359 49.09 158.297 45.6283 151.419C44.9976 149.947 44.0066 147.966 42.6552 145.476L40.6143 141.633L39.475 144.883C38.9509 146.576 38.2019 149.406 37.2278 153.374L36.6322 155.667C36.0829 158.324 35.3619 163.702 34.4691 171.799L34.1075 175.06C34.0003 175.961 33.7475 176.88 33.3492 177.818C33.0145 178.674 32.6652 179.125 32.3015 179.171ZM104.644 169.754C103.552 169.892 102.7 169.003 102.087 167.085C101.895 166.739 101.521 166.122 100.964 165.231C100.471 164.259 99.7437 162.319 98.7826 159.41C98.1784 157.565 95.9646 151.489 92.1411 141.182C91.5646 139.555 90.7277 137.333 89.6304 134.515C88.5237 131.625 87.8376 129.717 87.5719 128.789C86.255 125.408 85.1345 122.409 84.2104 119.791C80.8258 110.612 78.6628 104.936 77.7214 102.764C77.145 101.137 76.8151 99.9959 76.7319 99.3411C76.621 98.4682 76.6925 97.8677 76.9465 97.5397C77.2732 97.2025 77.7865 96.8785 78.4862 96.5678L82.0595 95.8918C84.6414 95.2679 86.8054 94.845 88.5513 94.6231C90.0063 94.4381 90.9434 94.5408 91.3626 94.931C91.8453 95.2393 92.16 95.6798 92.3068 96.2525C92.5262 96.816 92.6498 97.2069 92.6776 97.4251L93.5838 100.193C94.7552 103.592 95.5101 105.751 95.8486 106.669L98.522 112.871C101.529 119.66 103.165 123.518 103.431 124.445C103.732 125.072 104.149 126.313 104.68 128.167C105.037 129.23 105.385 130.221 105.723 131.139C106.062 132.057 106.413 132.493 106.776 132.447L107.104 132.405C107.921 131.858 108.976 129.691 110.269 125.904L111.355 123.105C111.463 122.795 112.043 121.539 113.093 119.336C113.374 118.635 114.044 117.219 115.104 115.088C116.154 112.885 116.77 111.328 116.95 110.418C117.529 109.162 118.041 108.246 118.486 107.672C118.994 107.017 119.575 106.647 120.23 106.564C120.739 106.499 121.085 106.603 121.267 106.875C121.523 107.139 121.728 107.593 121.884 108.238C122.104 108.802 122.364 109.397 122.666 110.024C122.831 110.742 123.366 112.338 124.272 114.81L126.414 121.191C127.282 123.372 128.228 125.285 129.25 126.929C129.643 127.692 130.154 128.514 130.783 129.395C130.845 128.722 130.98 128.039 131.188 127.348L132.068 123.799C132.085 123.353 132.184 122.675 132.364 121.765C132.534 120.782 132.656 119.991 132.727 119.39C133.482 114.859 133.895 112.293 133.966 111.692C134.243 109.218 134.813 105.56 135.676 100.719C136.53 95.8057 137.156 92.5845 137.553 91.0555C137.686 89.7818 138.026 88.9625 138.571 88.5975C139.189 88.2233 139.866 88.0263 140.602 88.0066C141.33 87.9141 141.839 87.8494 142.13 87.8124L151.078 86.675C152.533 86.49 153.316 86.834 153.427 87.707C153.473 88.0708 153.483 88.4391 153.457 88.8121C153.421 89.1124 153.385 89.4126 153.349 89.7128C153.151 90.4773 152.958 91.5738 152.77 93.0022C152.221 96.2506 151.636 99.208 151.014 101.874C150.114 106.424 149.198 112.011 148.266 118.635L147.593 122.934L146.468 133.278L144.954 146.666C144.415 149.987 143.614 153.859 142.55 158.282C141.476 162.632 140.612 164.849 139.958 164.932C139.157 165.034 138.402 164.612 137.69 163.668C136.969 162.651 136.248 161.338 135.526 159.729C134.714 158.576 133.523 156.473 131.952 153.42C130.454 150.357 129.083 147.427 127.841 144.628C127.273 143.074 126.076 140.343 124.249 136.435C123.664 135.327 123.262 134.491 123.043 133.927L119.919 127.671C119.676 128.663 119.495 129.278 119.377 129.514C119.179 130.279 118.939 131.012 118.659 131.713C118.451 132.404 118.238 133.06 118.021 133.679L112.365 149.367L111.199 153.285C109.637 158.437 108.702 161.845 108.396 163.51C107.954 165.267 107.403 166.742 106.741 167.935C106.143 169.045 105.444 169.652 104.644 169.754ZM207.171 156.832C206.08 156.97 205.397 156.835 205.123 156.427C204.913 155.936 204.747 154.922 204.626 153.385C204.321 150.984 203.993 148.698 203.643 146.524L201.719 133.13C201.46 131.093 201.264 128.974 201.132 126.773C200.991 124.5 200.846 122.485 200.697 120.73C200.395 115.446 200.11 111.749 199.841 109.639L197.452 89.0966L196.594 83.2179C196.27 80.6717 196.267 79.1936 196.584 78.7836C196.775 78.5377 197.016 78.3962 197.307 78.3592C197.452 78.3407 197.716 78.3811 198.098 78.4803C198.471 78.5068 198.876 78.4924 199.313 78.4369L202.681 77.8978C204.064 77.7221 205.091 77.6653 205.765 77.7276C206.447 77.8626 206.989 78.3481 207.391 79.1841C207.784 79.9474 208.159 80.8607 208.516 81.9242C208.863 82.9149 209.147 83.692 209.367 84.2555C209.98 86.1735 211.163 88.7952 212.917 92.1206C214.743 95.4368 216.441 98.3258 218.01 100.788C219.251 102.404 220.957 105.07 223.13 108.786C225.366 112.42 226.991 115.318 228.005 117.48C228.589 118.589 229.393 119.965 230.415 121.609L232.551 125.33L235.495 130.167C237.077 125.752 238.221 122.539 238.926 120.528L244.216 105.44L247.878 94.9949C249.759 89.4334 251.038 85.8333 251.717 84.1947C252.738 81.1818 253.861 78.3779 255.083 75.783C256.296 73.1154 257.23 71.74 257.885 71.6568C258.467 71.5828 258.818 72.0187 258.938 72.9644C259.049 73.8373 259.015 75.0244 258.837 76.5256L258.747 79.3092C258.706 81.3103 259.67 90.0586 261.639 105.554C262.074 108.973 262.492 113.134 262.893 118.035C263.367 122.928 263.634 126.184 263.691 127.803C263.786 129.713 264.07 132.523 264.541 136.233L265.996 146.804L266.065 147.349C266.176 148.222 266.004 148.614 265.549 148.524L265.331 148.552C264.967 148.598 264.535 148.69 264.035 148.827C263.608 148.955 263.14 149.052 262.631 149.117C262.33 149.081 262.089 148.927 261.907 148.654C261.797 148.373 261.696 147.868 261.603 147.14L260.785 140.702C259.842 133.282 259.36 128.908 259.339 127.58C259.29 126.034 259.075 123.178 258.693 119.013C258.384 114.839 258.068 111.478 257.744 108.932C257.588 108.287 257.366 106.245 257.077 102.807L256.686 98.8651L255.906 90.9806C255.489 91.7728 255.15 92.5921 254.888 93.4386C254.318 94.7678 253.798 96.2015 253.328 97.7396L252.514 100.061C251.582 102.619 250.524 105.636 249.34 109.113C248.147 112.518 247.111 115.421 246.234 117.825C245.257 120.61 244.014 124.205 242.504 128.611C241.058 132.934 239.942 136.366 239.156 138.905C237.828 143.583 237.019 145.941 236.728 145.978C236.51 146.006 236.136 145.684 235.607 145.012C235.078 144.34 234.727 143.904 234.554 143.704C233.943 142.968 232.93 141.397 231.515 138.989C230.091 136.509 228.927 134.329 228.022 132.448C227.42 131.194 225.061 127.76 220.947 122.148C217.69 117.461 216.011 115.013 215.911 114.804C214.998 113.442 213.707 111.129 212.035 107.867C211.004 106.15 210.182 104.629 209.57 103.302L209.962 108.131L210.687 115.579L213.201 137.104L215.256 154.141C215.339 154.795 215.208 155.219 214.863 155.41C214.518 155.602 214.091 155.73 213.581 155.795C213.063 155.787 212.658 155.802 212.367 155.839L209.98 156.253C208.689 156.565 207.753 156.758 207.171 156.832ZM307.334 146.539C296.421 147.926 288.68 145.177 284.108 138.292C279.528 131.334 276.701 123.636 275.628 115.197C274.593 107.049 275.002 100.381 276.856 95.1925C278.7 89.9312 281.244 86.0965 284.486 83.6885C287.801 81.2711 291.241 79.8359 294.805 79.3828C301.498 78.5321 306.763 79.8218 310.599 83.2521C314.508 86.6731 317.264 90.906 318.867 95.9509C320.532 100.914 321.744 106.378 322.503 112.343C322.567 112.853 322.245 113.226 321.536 113.464C319.136 113.769 313.658 114.872 305.102 116.773C303.739 117.094 302.088 117.489 300.152 117.956C298.206 118.352 296.042 118.775 293.66 119.225C295.212 126.199 299.48 129.241 306.463 128.354C308.791 128.058 310.546 127.613 311.727 127.019C312.981 126.416 314.939 125.243 317.6 123.501C318.11 123.436 318.583 123.671 319.021 124.207C319.531 124.734 320.266 125.86 321.225 127.586C321.489 127.922 321.831 128.581 322.252 129.562C322.745 130.535 323.17 131.257 323.525 131.729C325.351 135.045 326.237 136.781 326.183 136.935C326.075 137.245 325.725 137.696 325.135 138.288C323.802 140.01 321.499 141.671 318.228 143.269C315.039 144.931 311.407 146.021 307.334 146.539ZM305.375 110.196C303.739 101.977 301.211 98.0843 297.792 98.5189C295.755 98.7778 294.344 100.177 293.558 102.716C292.762 105.183 292.528 108.576 292.856 112.896L305.375 110.196ZM340.684 139.86C339.593 139.999 338.992 139.632 338.881 138.759L336.231 117.917L335.066 108.75L331.891 77.6626C331.789 76.8624 331.915 76.4028 332.27 76.2838C332.542 76.1013 333.37 75.9222 334.752 75.7465C337.516 75.3951 339.053 75.2737 339.363 75.3822C339.581 75.3544 339.781 75.4768 339.964 75.7493C340.21 75.9398 340.342 76.1078 340.361 76.2533L340.737 80.0864L345.289 77.5119C352.093 73.4683 356.041 71.3771 357.132 71.2384L357.241 71.2245C357.75 71.1598 358.234 71.7636 358.691 73.0361C358.895 74.6366 359.088 75.8687 359.272 76.7324C359.374 77.5326 359.544 78.2872 359.782 78.9962L360.196 81.383L360.224 81.6013C360.261 81.8923 360.188 82.1971 360.007 82.5159C359.826 82.8346 359.667 83.0396 359.531 83.1308C357.277 84.0087 354.827 84.8006 352.182 85.5065C349.6 86.1304 348.095 86.5065 347.668 86.6347L341.559 88.2983L343.515 103.685L344.125 108.486L345.065 114.132C345.333 116.242 345.523 118.029 345.635 119.493C345.722 121.922 345.965 124.7 346.362 127.828L346.834 131.538C347.296 135.176 347.437 137.449 347.257 138.359C347.322 138.869 346.772 139.197 345.608 139.345L340.684 139.86ZM397.321 133.991C389.246 135.018 382.67 132.712 377.591 127.074C372.504 121.363 369.322 113.488 368.046 103.449C367.242 97.1202 367.548 91.3891 368.965 86.2561C370.383 81.1231 372.739 76.9795 376.034 73.8255C379.402 70.6622 383.487 68.7754 388.288 68.1651C392.944 67.5732 396.833 67.929 399.956 69.2323C403.079 70.5356 405.283 71.8817 406.568 73.2707C406.65 73.3342 406.864 73.5657 407.211 73.9652C407.621 74.2827 407.849 74.6234 407.895 74.9871C407.941 75.3508 407.642 75.9063 406.998 76.6535C406.427 77.3915 405.683 78.5209 404.768 80.0418C404.188 81.2983 403.68 81.9542 403.243 82.0097C403.025 82.0375 402.752 81.9243 402.424 81.6703C402.087 81.3436 401.836 81.1167 401.672 80.9897C400.187 79.7739 398.384 78.6725 396.262 77.6855C394.214 76.6892 392.244 76.3113 390.352 76.5517C386.351 77.0603 383.088 78.1404 380.563 79.7921C378.028 81.3709 376.201 84.1535 375.082 88.1399C373.953 92.0534 373.832 97.5021 374.72 104.486C376.098 115.325 378.777 122.155 382.758 124.976C386.802 127.714 390.861 128.825 394.935 128.307C396.827 128.067 398.98 126.98 401.396 125.046C403.875 123.031 405.892 120.002 407.448 115.961C408.001 115.077 408.46 114.612 408.823 114.566C409.187 114.52 409.569 114.619 409.97 114.864L411.773 115.965C412.502 116.464 413.29 117.14 414.138 117.993C415.058 118.837 415.546 119.477 415.602 119.914C415.639 120.205 415.571 120.546 415.399 120.938C414.24 123.45 412.286 126.101 409.535 128.891C406.776 131.607 402.704 133.307 397.321 133.991ZM445.496 126.759C445.06 126.814 443.814 126.899 441.758 127.012C439.766 127.044 438.006 127.157 436.479 127.351C435.315 127.499 433.869 127.756 432.142 128.124L429.864 128.524C428.773 128.663 428.172 128.296 428.061 127.423L427.906 125.336L426.648 117.179C426.187 114.133 425.592 110.328 424.864 105.763C424.209 101.189 423.857 98.4247 423.81 97.4697C423.808 96.8785 423.581 94.8006 423.128 91.2359L422.615 87.1984C422.255 84.9525 421.816 81.2013 421.295 75.945L420.225 66.6557C419.92 64.2551 419.464 61.2453 418.856 57.6264C418.498 55.9717 418.157 53.8712 417.833 51.325L417.488 49.4838C417.386 48.6836 417.513 48.224 417.867 48.105C418.295 47.9768 418.767 47.9167 419.286 47.9247C419.868 47.8507 420.45 47.7767 421.032 47.7028C421.914 47.6645 423.41 47.5113 425.52 47.2432C427.848 46.9473 429.553 46.6936 430.635 46.4821C431.362 46.3896 432.09 46.2972 432.817 46.2047C433.608 46.0302 434.263 45.947 434.781 45.955C434.999 45.9273 435.2 46.0497 435.382 46.3222C435.628 46.5127 435.761 46.6806 435.779 46.8261L435.797 48.709L436.873 54.5599L437.874 63.3036L438.203 64.1488C441.736 61.7037 445.394 60.2408 449.177 59.7599C452.305 59.3623 454.87 59.4797 456.873 60.1123C458.948 60.7356 460.948 62.2186 462.872 64.5613C464.887 67.0403 466.379 69.4749 467.348 71.8651C467.934 73.5648 468.393 75.7242 468.726 78.3431L469.458 82.3528C470.671 88.4082 471.449 92.7817 471.791 95.4734C472.004 97.1466 472.185 99.1564 472.336 101.503L472.67 105.009C472.735 105.518 472.87 106.868 473.074 109.06C473.343 111.17 473.8 114.771 474.448 119.863C474.494 120.227 474.572 120.55 474.682 120.831C474.791 121.113 474.869 121.436 474.916 121.8C474.98 122.309 474.654 122.646 473.935 122.811C473.217 122.976 471.512 123.23 468.82 123.572C464.528 124.118 461.541 124.461 459.859 124.601C459.349 124.665 458.772 124.776 458.127 124.932C457.49 125.16 456.954 125.302 456.517 125.358C455.999 125.35 455.707 125.091 455.643 124.582C455.037 122.146 454.194 116.672 453.112 108.16L452.222 100.289C451.887 96.4881 451.594 93.6053 451.344 91.6411C450.901 88.1492 450.24 85.5719 449.364 83.9091C448.55 82.1644 447.198 81.4123 445.307 81.6527C444.434 81.7637 443.72 81.9653 443.166 82.2575C442.602 82.477 442.021 82.8466 441.422 83.3663L444.25 104.74C445.217 110.605 445.872 114.883 446.214 117.575C446.584 120.485 446.77 122.531 446.772 123.714L446.814 124.041C446.851 124.332 446.929 124.655 447.048 125.009C447.167 125.364 447.199 125.618 447.145 125.773C447.21 126.282 446.66 126.611 445.496 126.759ZM504.325 120.279C498.869 120.972 494.397 120.099 490.908 117.66C487.419 115.22 485.235 110.545 484.357 103.634C483.497 96.8684 484.969 91.8762 488.774 88.6575C492.651 85.4294 497.244 83.1823 502.553 81.916L507.599 80.6093C510.953 79.6655 513.504 79.0826 515.25 78.8606L515.069 77.4421L513.802 71.8371C512.995 68.3914 511.976 66.1923 510.746 65.2398C509.507 64.2146 507.941 63.8221 506.05 64.0626C504.668 64.2383 502.301 65.3893 498.949 67.5156C495.588 69.5692 492.314 72.0182 489.127 74.8628C489.063 74.9448 488.922 74.9997 488.704 75.0274C488.413 75.0644 488.054 74.8514 487.625 74.3884C486.932 73.5894 486.307 72.4492 485.749 70.9677C485.52 70.3314 485.096 69.6092 484.475 68.801C483.928 67.9835 483.626 67.3565 483.571 66.92C483.515 66.4835 483.887 65.9188 484.686 65.2258C488.418 62.0163 491.51 59.5904 493.962 57.948C496.488 56.2964 498.705 55.1275 500.613 54.4413C502.522 53.7552 504.713 53.2549 507.187 52.9405C514.971 51.951 521.024 53.9168 525.345 58.8377C526.211 59.8365 526.946 60.9629 527.549 62.2168C528.152 63.4708 528.677 64.6977 529.126 65.8974C529.637 67.0151 529.953 67.7512 530.072 68.1057C531.846 72.7591 533.008 78.1187 533.557 84.1846C534.241 89.5679 534.673 93.5419 534.851 96.1066C535.045 97.6343 535.482 99.9074 536.161 102.926C536.877 106.235 537.315 108.804 537.473 110.632L537.749 111.927C537.962 113.601 537.413 114.52 536.104 114.687C535.231 114.798 533.567 115.083 531.112 115.543C528.657 116.003 526.884 116.302 525.793 116.441C525.065 116.534 524.415 116.653 523.842 116.8C523.269 116.947 522.729 117.052 522.219 117.117C521.928 117.154 521.623 117.082 521.305 116.901C521.049 116.637 520.899 116.324 520.852 115.96L520.468 114.679C520.386 114.615 520.295 114.479 520.194 114.27C520.166 114.052 520.07 113.879 519.906 113.752C516.212 117.252 511.018 119.428 504.325 120.279ZM501.916 110.051C505.408 109.607 508.599 108.832 511.489 107.725C514.379 106.619 516.687 105.29 518.412 103.74L517.084 95.0384C514.555 94.9164 512.631 94.9022 511.313 94.9959C510.058 95.0076 508.12 95.1799 505.502 95.5128C502.373 95.9104 499.465 96.8715 496.775 98.3962C494.159 99.9115 492.982 102.575 493.245 106.385C493.256 107.64 493.941 108.662 495.298 109.451C496.655 110.239 498.861 110.439 501.916 110.051ZM555.532 112.55C555.096 112.605 554.755 112.538 554.509 112.347C554.335 112.148 554.216 111.793 554.152 111.284L553.266 105.187C551.099 91.0473 549.913 82.8817 549.708 80.69L545.686 49.0446C545.556 48.0262 545.964 47.4568 546.91 47.3366L548.874 47.0869L551.289 46.8909C551.871 46.8169 552.24 47.3983 552.398 48.635L552.788 52.5773L555.853 50.5243C558.515 48.7814 560.895 47.4439 562.994 46.5118C565.157 45.4976 567.948 44.7733 571.367 44.3386C574.714 43.9133 577.547 44.1075 579.869 44.9213C582.253 45.6531 584.558 47.2082 586.782 49.5867C589.133 51.8012 590.836 57.0551 591.89 65.3484L594.413 84.3217L595.136 90.8829C595.583 95.5573 595.944 98.9857 596.222 101.168C596.462 103.06 596.642 104.183 596.761 104.537C596.999 105.246 597.123 105.637 597.132 105.71C597.187 106.146 597.12 106.487 596.929 106.733C596.802 106.897 596.525 107.043 596.098 107.172C595.534 107.391 594.598 107.584 593.289 107.751C592.052 107.908 591.288 108.005 590.997 108.042C590.488 108.107 590.142 108.003 589.959 107.73C589.777 107.458 589.616 106.776 589.478 105.685L587.611 87.5149L586.54 77.3388L585.678 69.6864C584.827 62.9936 583.799 58.6888 582.595 56.7721C581.409 55.0009 580.36 53.7296 579.449 52.9584C578.601 52.1051 577.499 51.5798 576.144 51.3826C574.851 51.1033 573.005 51.1162 570.604 51.4214C567.694 51.7913 564.718 52.798 561.674 54.4416C558.703 56.076 556.296 57.7865 554.453 59.5731C555.184 65.3202 555.858 70.3352 556.477 74.618L558.391 89.6769C558.999 93.2958 559.598 97.1375 560.189 101.202C560.779 105.267 561.19 108.208 561.421 110.027C561.495 110.609 561.369 111.069 561.042 111.406C560.788 111.734 560.188 111.958 559.242 112.078L555.532 112.55ZM634.468 103.736C628.066 104.55 622.882 103.028 618.918 99.1702C615.026 95.3035 612.251 90.925 610.595 86.0349C608.929 81.072 607.856 76.6991 607.375 72.9162C606.182 63.5317 607.016 55.5529 609.876 48.9797C612.81 42.3972 618.205 38.6067 626.062 37.6079C631.009 36.9791 635.708 37.6015 640.16 39.4751L638.771 27.6761L637.978 20.5693C637.914 20.06 638.172 19.7684 638.754 19.6944C639.191 19.639 639.559 19.6291 639.859 19.6648C640.232 19.6914 640.528 19.6907 640.746 19.663L644.252 19.3283C644.907 19.245 645.321 19.3033 645.494 19.503C645.667 19.7028 645.781 20.0209 645.837 20.4574C645.865 20.6756 645.92 21.1121 646.003 21.7669C646.15 22.3396 646.316 23.3534 646.501 24.8084L647.673 37.522C648.207 44.6248 648.64 49.4857 648.973 52.1046L649.722 57.9972C649.925 59.5976 650.123 60.8661 650.316 61.8026L654.141 90.1465L654.942 94.7019L655.673 98.7117C655.747 99.2937 655.648 99.6759 655.375 99.8584C655.176 100.032 654.93 100.137 654.639 100.174C654.421 100.201 654.276 100.22 654.203 100.229C654.13 100.238 653.944 100.225 653.643 100.189C653.343 100.154 652.902 100.173 652.32 100.247C651.593 100.339 650.979 100.454 650.479 100.592C649.979 100.729 649.583 100.816 649.292 100.853C648.856 100.909 648.556 100.873 648.392 100.746C648.291 100.537 648.195 100.069 648.102 99.3414L648.088 99.2323C644.391 101.55 639.851 103.052 634.468 103.736ZM634.252 98.5516C640.29 97.7841 644.468 94.8874 646.786 89.8617L644.054 68.3647C643.148 61.2354 642.575 57.0206 642.336 55.7204C642.087 54.3474 641.769 52.1332 641.38 49.0778L641.325 48.6413C639.283 46.5353 636.765 45.0443 633.771 44.1682C630.84 43.2102 627.919 42.9161 625.009 43.286C622.9 43.5541 620.887 44.5862 618.972 46.382C617.129 48.1687 615.72 50.7503 614.744 54.1269C613.769 57.5035 613.582 61.5561 614.183 66.2848C615.339 75.3782 617.593 83.2233 620.945 89.82C624.36 96.3346 628.796 99.2452 634.252 98.5516ZM671.738 98.6656C671.156 98.7395 670.783 98.713 670.619 98.586C670.464 98.5318 670.364 98.3228 670.318 97.959C670.29 97.7408 670.248 97.4134 670.193 96.9769C670.201 96.4585 670.154 95.7991 670.052 94.9989L668.649 83.0907L666.454 64.0758C666.195 62.0388 665.786 57.6554 665.226 50.9256C664.565 43.3956 664.151 39.2715 663.986 38.5532L663.641 36.7121C663.539 35.9118 663.574 35.316 663.746 34.9245C663.909 34.4603 664.282 34.1912 664.864 34.1172L669.461 33.6437C670.115 33.5605 670.493 33.919 670.595 34.7192C670.641 35.083 670.651 35.4513 670.625 35.8243C670.598 36.1973 670.608 36.5657 670.654 36.9294C670.703 38.4756 670.983 41.8405 671.494 47.0241C671.707 48.6973 672.102 52.9716 672.68 59.8468C672.894 62.1113 673.104 64.3393 673.308 66.531C673.504 68.65 673.703 70.5097 673.907 72.1101C674.351 75.602 674.951 80.035 675.708 85.4091C676.529 90.7012 677.076 93.8473 677.351 94.8472C677.461 95.129 677.548 95.5245 677.613 96.0337C677.678 96.543 677.647 96.8796 677.52 97.0436C677.475 97.271 677.238 97.4489 676.811 97.5771C676.266 97.9421 675.339 98.2078 674.03 98.3743C672.793 98.5315 672.029 98.6286 671.738 98.6656ZM666.642 29.7884C665.114 29.9826 663.622 29.5809 662.164 28.5834C660.78 27.5766 659.976 26.2003 659.754 24.4543C659.56 22.9266 659.935 21.5114 660.878 20.2087C661.885 18.8241 663.152 18.0346 664.68 17.8404C666.498 17.6093 668.195 17.8741 669.77 18.6348C671.346 19.3956 672.239 20.6126 672.452 22.2858C672.711 24.3227 672.192 26.052 670.894 27.4737C669.587 28.8226 668.17 29.5942 666.642 29.7884ZM713.241 94.3878C708.804 94.9519 705.061 94.8733 702.012 94.152C698.963 93.4307 697.079 92.857 696.36 92.431C695.704 91.923 694.187 90.7482 691.809 88.9067C691.317 88.5257 691.171 88.2486 691.371 88.0753C691.47 87.6931 691.674 87.2606 691.982 86.7779L693.179 84.8516C693.478 84.2962 694.026 83.3763 694.824 82.0921C695.014 81.8462 695.255 81.7047 695.546 81.6677C695.837 81.6307 696.26 81.7617 696.816 82.0607C697.362 82.287 697.84 82.5589 698.25 82.8764C698.332 82.9399 698.778 83.2527 699.589 83.815C700.463 84.2953 701.66 84.6975 703.18 85.0218C704.69 85.2734 706.319 85.2882 708.065 85.0662C710.392 84.7703 712.338 84.0795 713.9 82.9939C715.453 81.8355 716.044 79.8013 715.674 76.8914C715.379 74.5634 714.62 72.664 713.398 71.193C712.249 69.7127 710.882 68.5559 709.297 67.7223C707.704 66.8161 705.546 65.8336 702.824 64.7751C699.783 63.5353 697.312 62.408 695.408 61.3932C693.496 60.3057 691.783 58.7493 690.269 56.7241C688.827 54.6896 687.903 52.0719 687.496 48.871C687.015 45.0881 687.608 41.6122 689.275 38.4434C690.942 35.2745 693.425 32.7043 696.723 30.7327C700.084 28.6792 703.91 27.3796 708.203 26.834C715.041 25.9647 720.391 26.7631 724.253 29.2292C728.178 31.6132 730.218 32.8324 730.373 32.8866C730.692 33.0679 730.869 33.304 730.906 33.595C730.934 33.8133 730.889 34.0407 730.771 34.2775C730.654 34.5142 730.572 34.7463 730.527 34.9738C730.292 35.4473 729.88 36.2759 729.291 37.4596C728.775 38.634 728.326 39.4672 727.945 39.9592C727.828 40.1959 727.683 40.5101 727.511 40.9015C727.329 41.2203 727.134 41.4299 726.925 41.5304C726.789 41.6216 726.575 41.6857 726.284 41.7227C725.975 41.6142 724.859 40.9798 722.938 39.8196C721.007 38.5865 718.872 37.4904 716.532 36.5311C714.265 35.5625 712.368 35.1754 710.84 35.3696C709.24 35.573 708.181 36.2619 707.665 37.4364C707.14 38.5381 707.035 40.3256 707.349 42.7991C707.58 44.6178 708.211 46.09 709.241 47.2157C710.271 48.3415 711.219 49.1081 712.084 49.5156C712.949 49.9231 714.583 50.5656 716.986 51.4429C719.816 52.1919 722.288 53.0236 724.4 53.9379C726.585 54.8429 728.771 56.6348 730.96 59.3136C733.221 61.983 734.657 65.7185 735.267 70.5198C737.024 84.342 729.682 92.298 713.241 94.3878ZM775.495 85.8092C765.092 87.1316 757.565 84.9097 752.914 79.1434C748.263 73.3772 745.267 65.2199 743.926 54.6714C743.233 49.2153 743.704 43.9069 745.339 38.7461C747.039 33.5033 749.663 29.1409 753.212 25.6589C756.834 22.1677 761.046 20.1169 765.847 19.5065C771.667 18.7668 776.609 20.1345 780.673 23.6098C784.737 27.085 787.88 31.7492 790.103 37.6024C792.389 43.3735 793.952 49.5691 794.794 56.1892C794.931 56.6892 794.791 57.0396 794.373 57.2406C793.955 57.4416 793.091 57.6253 791.782 57.7918C789.435 57.9422 787.535 58.1099 786.08 58.2948C783.679 58.6 780.524 59.075 776.614 59.7198L773.791 60.1896L770.08 60.6612C764.915 61.3178 761.564 61.7068 760.027 61.8282C756.535 62.2721 753.985 62.5594 752.375 62.6901C753.644 69.1819 756.055 73.9022 759.608 76.851C763.225 79.7178 768.126 80.7581 774.309 79.9721C777.583 79.556 780.709 78.2715 783.688 76.1187C786.658 73.8931 788.663 71.3466 789.703 68.4792C789.766 68.3972 789.871 68.347 790.016 68.3285C790.38 68.2823 790.849 68.4814 791.423 68.9259C792.06 69.2884 792.539 69.5603 792.857 69.7416C793.722 70.1491 794.355 70.4752 794.756 70.72C795.157 70.9647 795.426 71.3371 795.563 71.8371C793.905 75.0787 791.219 78.0814 787.505 80.8451C783.863 83.5997 779.86 85.2544 775.495 85.8092ZM774.226 53.1485C776.19 52.8988 778.114 52.6174 779.996 52.3042C781.941 51.909 784.314 51.3856 787.115 50.734C785.371 43.4154 782.848 37.2309 779.545 32.1805C776.314 27.1208 772.662 24.8498 768.588 25.3677C765.096 25.8116 761.98 27.4644 759.239 30.3262C756.488 33.1153 754.399 36.7444 752.972 41.2134C751.544 45.6825 751.017 50.5544 751.392 55.8293C751.901 55.7645 752.597 55.7131 753.479 55.6748C754.352 55.5639 755.584 55.3703 757.175 55.0941L774.226 53.1485Z" fill="#E25F00"/>
</svg>
