<svg width="471" height="279" viewBox="0 0 471 279" fill="none" xmlns="http://www.w3.org/2000/svg">
<path d="M28.7871 145.333C28.3427 145.389 27.9733 145.275 27.679 144.99C27.4482 144.697 27.1932 144.213 26.9139 143.539C26.5954 143.063 25.921 141.31 24.8906 138.28C24.5075 137.296 23.9329 135.821 23.1667 133.854C22.3925 131.823 21.8381 130.507 21.5034 129.904C20.7545 128.58 19.8296 126.633 18.7287 124.063C17.6198 121.43 16.9696 119.868 16.7781 119.376C16.1168 118.234 14.0069 113.309 10.4483 104.6C9.91406 103.442 9.41557 102.312 8.95286 101.21C8.48207 100.044 8.06321 99.0326 7.69627 98.176L5.02733 91.6444L1.95164 84.1968C1.59277 83.4037 1.38508 82.785 1.32859 82.3406C1.30438 82.1501 1.35173 82.0151 1.47064 81.9354C1.58954 81.8558 1.74423 81.8039 1.9347 81.7797L4.88694 81.4044C5.96626 81.2672 6.72409 81.1386 7.16045 81.0186L8.18381 80.695C8.79449 80.4238 9.21927 80.4666 9.45816 80.8233C9.76054 81.172 10.1154 81.9333 10.5227 83.1073C10.7142 83.5991 11.6356 85.7723 13.2868 89.6268C14.93 93.4179 16.7556 97.1212 18.7635 100.737C20.446 104.329 21.9525 107.299 23.2831 109.646L25.4347 113.631L25.6582 112.344L26.2716 109.557C26.5789 108.421 27.0098 105.721 27.5646 101.457L27.9165 98.896C28.0494 97.9114 28.3908 96.0293 28.9407 93.2498C29.4905 90.4702 29.9266 88.3181 30.2489 86.7933C30.4776 86.0545 30.7254 84.9585 30.9923 83.5053C32.1103 79.1052 33.0503 76.8567 33.8122 76.7598C34.2566 76.7034 34.5504 76.7305 34.6935 76.8414C34.8366 76.9522 34.9601 77.1623 35.0639 77.4717C35.1678 77.7811 35.2635 78.0269 35.3512 78.2093C35.5428 78.7011 35.7782 79.2841 36.0574 79.9583C36.3286 80.5689 36.5801 81.2789 36.812 82.0881C40.1909 88.3682 42.215 92.1108 42.8843 93.316L46.6476 99.3214L48.8461 102.913C48.9246 102.516 49.0153 102.214 49.118 102.007L49.7677 99.5054C49.8463 99.1083 49.9348 97.7745 50.0333 95.504C50.1226 92.654 50.2493 90.6056 50.4134 89.359C50.5775 88.1124 50.927 86.2938 51.4618 83.9032C52.0591 80.9887 52.3607 79.0471 52.3666 78.0787C52.3381 75.8243 52.9587 74.6164 54.2285 74.455C55.212 74.0719 56.3387 73.7996 57.6085 73.6382C58.2434 73.5575 58.6601 73.5368 58.8586 73.5761C59.6205 73.4792 60.0377 73.7165 60.1104 74.2879L60.0652 75.4549L59.547 78.2304C59.3205 80.0011 59.105 81.3511 58.9006 82.2803C58.7284 83.4634 58.521 84.8769 58.2783 86.5206C58.0356 88.1643 57.797 89.8398 57.5624 91.547C57.0862 95.4139 56.6482 98.5663 56.2485 101.004C56.0612 102.576 55.935 104.883 55.8699 107.923C55.7967 110.9 55.7924 112.643 55.857 113.15C56.0507 114.674 55.8403 116.572 55.2258 118.844C55.0295 119.836 54.8196 121.992 54.5963 125.311C54.373 128.629 54.2388 130.872 54.1936 132.039C54.0913 136.31 53.9415 138.684 53.744 139.161C53.7289 139.55 53.6942 140.038 53.6399 140.625C53.6409 141.141 53.5941 141.534 53.4994 141.805C53.4682 142.067 53.3574 142.21 53.1669 142.234C52.659 142.298 52.2619 142.22 51.9757 141.998C51.7529 141.768 51.3986 141.265 50.9128 140.488C50.3242 139.918 48.6312 137.004 45.834 131.747C45.2443 130.661 43.4389 127.116 40.4178 121.113C39.8674 119.828 39.0025 118.099 37.8231 115.927L36.0419 112.573L35.0476 115.409C34.5903 116.886 33.9365 119.356 33.0864 122.819L32.5667 124.821C32.0873 127.14 31.458 131.832 30.6789 138.899L30.3633 141.745C30.2697 142.532 30.0491 143.334 29.7015 144.152C29.4093 144.899 29.1045 145.293 28.7871 145.333ZM78.6984 139.666C78.1905 139.73 77.865 139.707 77.7218 139.596C77.5868 139.549 77.4991 139.367 77.4587 139.049C77.4345 138.859 77.3982 138.573 77.3498 138.192C77.3568 137.74 77.3159 137.164 77.2271 136.466L76.0029 126.073L74.087 109.478C73.861 107.701 73.5037 103.875 73.0152 98.0019C72.4379 91.4303 72.0772 87.831 71.933 87.2042L71.632 85.5973C71.5432 84.8989 71.5739 84.3789 71.724 84.0373C71.866 83.6321 72.191 83.3973 72.6989 83.3327L76.7108 82.9195C77.2822 82.8469 77.6123 83.1597 77.7011 83.8581C77.7414 84.1756 77.75 84.4971 77.7269 84.8226C77.7038 85.1481 77.7124 85.4696 77.7527 85.787C77.7952 87.1364 78.0395 90.0731 78.4855 94.5969C78.6711 96.0572 79.0163 99.7874 79.5209 105.788C79.7076 107.764 79.8903 109.708 80.0689 111.621C80.2395 113.47 80.4135 115.093 80.5911 116.49C80.9784 119.538 81.5025 123.406 82.1632 128.097C82.8793 132.715 83.3573 135.461 83.5973 136.333C83.6931 136.579 83.7692 136.925 83.8257 137.369C83.8822 137.813 83.855 138.107 83.7442 138.25C83.7049 138.449 83.4988 138.604 83.126 138.716C82.6503 139.034 81.8411 139.266 80.6983 139.412C79.619 139.549 78.9524 139.634 78.6984 139.666ZM74.2509 79.5548C72.9176 79.7243 71.615 79.3738 70.3431 78.5032C69.1347 77.6246 68.4336 76.4234 68.2399 74.8997C68.0704 73.5664 68.3973 72.3313 69.2205 71.1944C70.0991 69.986 71.2051 69.297 72.5384 69.1276C74.1256 68.9258 75.6065 69.1569 76.9812 69.8208C78.3559 70.4848 79.1361 71.5469 79.3217 73.0071C79.5477 74.7848 79.0944 76.2941 77.9618 77.5348C76.8211 78.712 75.5842 79.3854 74.2509 79.5548ZM108.953 135.433C105.905 135.82 103.575 135.762 101.963 135.257C100.406 134.681 99.2886 133.758 98.6112 132.49C97.9892 131.149 97.5329 129.336 97.2424 127.051L96.5629 120.944C96.4892 119.856 96.2909 118.043 95.9681 115.503L94.4565 104.373C94.272 103.429 94.1111 102.417 93.9739 101.338L93.6107 98.4806L92.1096 86.6717L91.6254 82.8623C91.3349 80.5767 91.1407 78.795 91.0427 77.5171L90.678 73.8861L90.1574 69.7911C89.9002 68.2754 89.8663 67.2475 90.0557 66.7073C90.3006 66.0955 90.7087 65.7534 91.2801 65.6807C91.5975 65.6404 91.8555 65.6398 92.054 65.6791C92.57 65.678 93.1137 65.6412 93.6851 65.5685C94.3119 65.4244 94.8793 65.32 95.3872 65.2554L97.7681 64.9528C99.4188 64.7429 100.566 64.6294 101.209 64.6122C101.915 64.5869 102.411 64.6851 102.698 64.9068C103.047 65.1204 103.254 65.4812 103.319 65.9891C103.343 66.1795 103.373 66.9177 103.407 68.2037C103.425 72.911 103.905 78.7208 104.848 85.633C104.93 86.7839 105.023 87.772 105.128 88.5974C105.297 89.4147 105.417 90.109 105.49 90.6804L105.817 93.2517C106.082 94.8309 106.396 97.049 106.759 99.906L107.729 108.299L108.695 114.369C108.952 115.885 109.237 117.623 109.551 119.583C109.865 121.543 110.134 123.412 110.36 125.19L110.603 127.094C110.707 127.92 111.458 128.244 112.855 128.066C113.49 127.985 114.018 127.822 114.438 127.575C114.921 127.32 115.259 127.18 115.449 127.156C115.957 127.091 116.426 127.483 116.856 128.332C117.232 129.252 117.65 130.005 118.111 130.591C118.183 130.647 118.227 130.738 118.243 130.865C118.275 131.119 118.153 131.425 117.876 131.783C116.751 133.087 115.57 133.947 114.333 134.362C113.095 134.777 111.302 135.134 108.953 135.433ZM135.202 132.096C132.662 132.419 130.709 132.28 129.342 131.68C127.976 131.079 127.017 130.137 126.467 128.852C125.908 127.504 125.48 125.655 125.181 123.306L124.526 117.389L123.574 106.091L122.794 97.6742L120.446 79.1989C120.155 76.9133 119.961 75.1315 119.863 73.8537L119.498 70.2227L118.978 66.1276C118.72 64.612 118.686 63.584 118.876 63.0438C119.121 62.4321 119.529 62.0899 120.1 62.0173C120.418 61.9769 120.676 61.9764 120.874 62.0157L121.065 61.9914C121.192 61.9753 121.414 61.9471 121.731 61.9067C122.041 61.8029 122.33 61.7983 122.6 61.893C123.894 61.922 124.598 62.381 124.711 63.2698C124.735 63.4603 124.764 64.1985 124.799 65.4844C124.817 70.1918 125.297 76.0016 126.24 82.9138L129.121 105.579L129.476 109.889C129.768 113.207 130.032 115.786 130.266 117.627L130.508 119.532C130.766 121.564 131.404 123.031 132.422 123.934C133.432 124.773 134.667 125.1 136.127 124.914C136.826 124.826 137.425 124.717 137.925 124.589C138.417 124.398 138.789 124.286 139.043 124.253C139.742 124.165 140.151 124.596 140.272 125.549L141.34 129.381C140.556 130.319 139.732 130.94 138.867 131.243C138.011 131.61 136.789 131.895 135.202 132.096ZM191.763 124.616C191.319 124.673 190.949 124.558 190.655 124.273C190.424 123.98 190.169 123.496 189.89 122.822C189.571 122.347 188.897 120.594 187.867 117.563C187.484 116.58 186.909 115.104 186.143 113.137C185.369 111.107 184.814 109.79 184.479 109.188C183.731 107.863 182.806 105.917 181.705 103.347C180.596 100.714 179.946 99.1512 179.754 98.6594C179.093 97.5177 176.983 92.5924 173.424 83.8836C172.89 82.7258 172.392 81.5956 171.929 80.4931C171.458 79.3272 171.039 78.316 170.672 77.4594L168.003 70.9278L164.928 63.4802C164.569 62.6871 164.361 62.0684 164.305 61.6239C164.28 61.4335 164.328 61.2984 164.447 61.2188C164.566 61.1392 164.72 61.0872 164.911 61.063L167.863 60.6878C168.942 60.5506 169.7 60.422 170.137 60.302L171.16 59.9784C171.771 59.7072 172.195 59.75 172.434 60.1067C172.737 60.4553 173.091 61.2167 173.499 62.3907C173.69 62.8825 174.612 65.0556 176.263 68.9102C177.906 72.7012 179.732 76.4046 181.74 80.0202C183.422 83.6128 184.929 86.5825 186.259 88.9294L188.411 92.9139L188.634 91.6275L189.248 88.8399C189.555 87.7041 189.986 85.0042 190.541 80.7402L190.893 78.1794C191.025 77.1947 191.367 75.3127 191.917 72.5331C192.467 69.7536 192.903 67.6014 193.225 66.0766C193.454 65.3379 193.701 64.2419 193.968 62.7887C195.086 58.3885 196.026 56.1401 196.788 56.0432C197.233 55.9867 197.526 56.0139 197.67 56.1247C197.813 56.2356 197.936 56.4457 198.04 56.7551C198.144 57.0644 198.24 57.3103 198.327 57.4927C198.519 57.9845 198.754 58.5675 199.033 59.2416C199.305 59.8523 199.556 60.5623 199.788 61.3715C203.167 67.6515 205.191 71.3942 205.86 72.5994L209.624 78.6048L211.822 82.1962C211.901 81.7991 211.991 81.4973 212.094 81.2907L212.744 78.7888C212.822 78.3917 212.911 77.0579 213.009 74.7874C213.099 71.9373 213.225 69.889 213.39 68.6424C213.554 67.3957 213.903 65.5771 214.438 63.1866C215.035 60.272 215.337 58.3305 215.343 57.362C215.314 55.1076 215.935 53.8997 217.205 53.7383C218.188 53.3552 219.315 53.083 220.585 52.9216C221.219 52.8409 221.636 52.8202 221.835 52.8594C222.597 52.7626 223.014 52.9999 223.086 53.5713L223.041 54.7383L222.523 57.5138C222.297 59.2845 222.081 60.6344 221.877 61.5636C221.704 62.7468 221.497 64.1602 221.254 65.804C221.012 67.4477 220.773 69.1231 220.538 70.8304C220.062 74.6973 219.624 77.8497 219.225 80.2875C219.037 81.8597 218.911 84.166 218.846 87.2065C218.773 90.1835 218.769 91.9259 218.833 92.4339C219.027 93.9576 218.816 95.8553 218.202 98.1269C218.006 99.1196 217.796 101.275 217.572 104.594C217.349 107.913 217.215 110.155 217.17 111.322C217.067 115.593 216.918 117.967 216.72 118.444C216.705 118.833 216.67 119.321 216.616 119.909C216.617 120.425 216.57 120.818 216.476 121.088C216.444 121.35 216.333 121.493 216.143 121.517C215.635 121.582 215.238 121.503 214.952 121.282C214.729 121.052 214.375 120.548 213.889 119.772C213.3 119.201 211.607 116.287 208.81 111.03C208.22 109.944 206.415 106.399 203.394 100.396C202.843 99.1114 201.979 97.3827 200.799 95.2101L199.018 91.8559L198.024 94.6919C197.566 96.1694 196.913 98.6396 196.063 102.102L195.543 104.104C195.063 106.423 194.434 111.116 193.655 118.182L193.339 121.029C193.246 121.815 193.025 122.617 192.678 123.436C192.385 124.182 192.081 124.576 191.763 124.616ZM260.129 117.958C251.748 119.024 245.754 116.527 242.145 110.47C238.528 104.349 236.252 97.6066 235.316 90.2419C234.412 83.1311 234.769 77.3116 236.387 72.7835C237.997 68.1918 240.216 64.8452 243.046 62.7436C245.939 60.634 248.941 59.3814 252.052 58.986C257.893 58.2435 262.503 59.2381 265.883 61.9697C269.254 64.6379 271.623 68.0464 272.989 72.1953C274.347 76.2806 275.361 80.9581 276.031 86.2277C276.571 90.4815 276.402 94.9868 275.523 99.7436C274.699 104.429 272.993 108.517 270.404 112.007C267.871 115.426 264.446 117.409 260.129 117.958ZM257.114 99.5676C259.209 99.3013 260.607 98.1235 261.31 96.0343C262.075 93.937 262.281 91.4916 261.925 88.6981C261.465 85.0792 260.666 82.6002 259.529 81.261C258.446 79.8502 256.984 79.2619 255.143 79.4959C251.207 79.9963 249.69 83.8018 250.594 90.9126C250.933 93.5792 251.565 95.7569 252.489 97.4458C253.414 99.1347 254.955 99.842 257.114 99.5676ZM312.075 110.291C305.663 111.106 300.508 109.89 296.612 106.643C292.707 103.333 289.969 99.5525 288.396 95.3009C286.823 91.0493 285.831 87.3045 285.419 84.0665C284.362 75.7495 285.328 68.6268 288.316 62.6987C291.368 56.7625 296.83 53.294 304.703 52.2933C308.258 51.8413 311.852 52.7071 315.484 54.8905C319.172 57.0023 322.298 60.0242 324.862 63.9562C327.49 67.8802 329.099 72.1595 329.688 76.7942C330.137 82.8661 329.934 88.1176 329.078 92.549C328.055 97.195 326.174 101.176 323.435 104.492C320.75 107.736 316.964 109.669 312.075 110.291ZM311.887 105.766C317.347 105.072 321.064 102.084 323.038 96.8005C325.075 91.5094 325.645 85.3402 324.749 78.2929C324.12 73.3408 322.726 69.2277 320.568 65.9537C318.465 62.6082 315.968 60.216 313.075 58.7773C310.175 57.275 307.328 56.7015 304.534 57.0566C301.487 57.444 298.93 58.898 296.863 61.4187C294.788 63.876 293.318 67.0305 292.453 70.8823C291.651 74.7261 291.529 78.8384 292.086 83.2191C292.99 90.3299 295.105 96.0609 298.433 100.412C301.815 104.692 306.3 106.476 311.887 105.766ZM363.013 103.816C357.426 104.526 352.903 103.198 349.442 99.8311C346.046 96.4565 343.625 92.6353 342.179 88.3675C340.725 84.0363 339.788 80.2199 339.369 76.9185C338.328 68.7284 339.055 61.765 341.552 56.0284C344.112 50.2837 348.82 46.9756 355.677 46.104C359.994 45.5552 364.096 46.0984 367.981 47.7335L366.769 37.4362L366.077 31.2339C366.021 30.7895 366.246 30.535 366.754 30.4704C367.135 30.422 367.457 30.4134 367.719 30.4446C368.044 30.4677 368.302 30.4672 368.493 30.443L371.552 30.1508C372.124 30.0782 372.485 30.129 372.636 30.3034C372.787 30.4777 372.887 30.7553 372.936 31.1362C372.96 31.3267 373.008 31.7077 373.081 32.2791C373.209 32.7789 373.354 33.6637 373.515 34.9335L374.538 46.029C375.004 52.2278 375.382 56.47 375.672 58.7556L376.326 63.8983C376.503 65.295 376.676 66.402 376.845 67.2193L380.183 91.9559L380.882 95.9315L381.52 99.4309C381.585 99.9388 381.498 100.272 381.26 100.432C381.086 100.583 380.872 100.675 380.618 100.707C380.427 100.731 380.3 100.747 380.237 100.755C380.173 100.763 380.011 100.752 379.748 100.721C379.486 100.689 379.102 100.706 378.594 100.771C377.959 100.851 377.423 100.952 376.987 101.072C376.55 101.192 376.205 101.268 375.951 101.3C375.57 101.348 375.308 101.317 375.165 101.206C375.077 101.024 374.993 100.615 374.913 99.9805L374.9 99.8853C371.674 101.908 367.711 103.218 363.013 103.816ZM362.825 99.2912C368.095 98.6214 371.741 96.0934 373.764 91.7073L371.379 72.9462C370.588 66.7243 370.089 63.046 369.88 61.9112C369.663 60.713 369.385 58.7806 369.046 56.1141L368.998 55.7331C367.216 53.8952 365.018 52.5939 362.405 51.8293C359.847 50.9932 357.298 50.7366 354.759 51.0594C352.918 51.2934 351.161 52.1941 349.489 53.7614C347.881 55.3207 346.651 57.5737 345.8 60.5206C344.949 63.4674 344.786 67.0042 345.31 71.131C346.319 79.0672 348.286 85.9138 351.212 91.6709C354.192 97.3564 358.063 99.8965 362.825 99.2912ZM404.851 82.0461C403.835 82.1752 402.902 81.939 402.052 81.3375C400.646 80.9355 399.91 80.4806 399.846 79.9727C399.559 79.235 399.35 78.3583 399.221 77.3425L398.905 74.0924C398.806 72.2986 398.692 70.8938 398.563 69.8779C398.369 68.3542 398.699 66.6349 399.552 64.72C400.397 62.7416 401.69 60.2225 403.43 57.1626C404.981 54.643 405.941 52.8112 406.312 51.6673C407.141 49.562 407.447 47.6522 407.229 45.938C407.003 44.1603 406.21 42.745 404.851 41.692C402.538 40.2441 400.429 39.6413 398.524 39.8834C397.762 39.9802 396.862 40.256 395.823 40.7106C394.626 41.4434 392.986 43.0067 390.903 45.4004C390.673 45.6232 390.28 45.5764 389.724 45.26C389.167 44.9436 388.357 44.4015 387.291 43.6337L385.157 42.0664C384.656 41.6785 384.139 41.1636 383.605 40.5217C383.064 39.8163 383.004 39.3401 383.424 39.0932C385.007 36.8275 386.642 34.9745 388.33 33.5341C390.66 31.5606 392.749 30.2306 394.597 29.544C396.501 28.7859 399.547 28.1406 403.738 27.6079C405.896 27.3335 408.025 27.8372 410.123 29.1188C412.222 30.4004 414.024 32.3971 415.53 35.1088C417.099 37.8125 418.122 41.0373 418.598 44.7831C418.994 47.8941 418.464 51.0903 417.011 54.3719C415.612 57.5818 414.026 60.3318 412.253 62.6217C411.145 64.0529 410.386 65.6976 409.977 67.556C409.568 69.4144 409.493 71.3595 409.751 73.3911C410.058 75.8037 410.041 77.4509 409.702 78.3328C409.639 78.8568 409.446 79.3653 409.121 79.8581C408.861 80.3429 408.548 80.673 408.183 80.8484C407.937 80.9442 407.449 81.1675 406.72 81.5183C406.045 81.7975 405.423 81.9734 404.851 82.0461ZM406.196 98.7136C404.609 98.9153 403.123 98.3945 401.739 97.1511C400.411 95.8361 399.625 94.2263 399.383 92.3216C399.311 91.7502 399.286 91.3017 399.309 90.9762C399.485 87.7926 401.414 85.9668 405.097 85.4987C407.128 85.2404 408.741 85.7451 409.934 87.0128C411.183 88.2088 411.904 89.5687 412.098 91.0925C412.154 91.5369 412.163 91.8584 412.124 92.0569C412.212 92.7553 412 93.621 411.486 94.6541C410.964 95.6236 410.236 96.4904 409.301 97.2544C408.374 98.0819 407.339 98.5683 406.196 98.7136ZM227.934 235.944C227.49 236 227.12 235.886 226.826 235.601C226.595 235.308 226.34 234.824 226.061 234.15C225.742 233.674 225.068 231.921 224.038 228.891C223.654 227.907 223.08 226.432 222.314 224.465C221.539 222.434 220.985 221.118 220.65 220.515C219.901 219.191 218.977 217.244 217.876 214.674C216.767 212.041 216.117 210.479 215.925 209.987C215.264 208.845 213.154 203.92 209.595 195.211C209.061 194.053 208.563 192.923 208.1 191.821C207.629 190.655 207.21 189.643 206.843 188.787L204.174 182.255L201.099 174.808C200.74 174.015 200.532 173.396 200.476 172.951C200.451 172.761 200.499 172.626 200.618 172.546C200.736 172.467 200.891 172.415 201.082 172.391L204.034 172.015C205.113 171.878 205.871 171.749 206.307 171.63L207.331 171.306C207.941 171.035 208.366 171.077 208.605 171.434C208.907 171.783 209.262 172.544 209.67 173.718C209.861 174.21 210.783 176.383 212.434 180.238C214.077 184.029 215.903 187.732 217.91 191.348C219.593 194.94 221.099 197.91 222.43 200.257L224.582 204.241L224.805 202.955L225.419 200.167C225.726 199.032 226.157 196.332 226.712 192.068L227.063 189.507C227.196 188.522 227.538 186.64 228.088 183.861C228.637 181.081 229.074 178.929 229.396 177.404C229.625 176.665 229.872 175.569 230.139 174.116C231.257 169.716 232.197 167.468 232.959 167.371C233.404 167.314 233.697 167.341 233.84 167.452C233.984 167.563 234.107 167.773 234.211 168.083C234.315 168.392 234.41 168.638 234.498 168.82C234.69 169.312 234.925 169.895 235.204 170.569C235.476 171.18 235.727 171.89 235.959 172.699C239.338 178.979 241.362 182.722 242.031 183.927L245.795 189.932L247.993 193.524C248.072 193.127 248.162 192.825 248.265 192.618L248.915 190.116C248.993 189.719 249.082 188.385 249.18 186.115C249.27 183.265 249.396 181.217 249.56 179.97C249.724 178.723 250.074 176.905 250.609 174.514C251.206 171.6 251.508 169.658 251.514 168.69C251.485 166.435 252.106 165.227 253.375 165.066C254.359 164.683 255.486 164.411 256.755 164.249C257.39 164.168 257.807 164.148 258.006 164.187C258.767 164.09 259.185 164.327 259.257 164.899L259.212 166.066L258.694 168.841C258.467 170.612 258.252 171.962 258.048 172.891C257.875 174.074 257.668 175.488 257.425 177.131C257.183 178.775 256.944 180.451 256.709 182.158C256.233 186.025 255.795 189.177 255.395 191.615C255.208 193.187 255.082 195.494 255.017 198.534C254.944 201.511 254.939 203.253 255.004 203.761C255.198 205.285 254.987 207.183 254.373 209.454C254.176 210.447 253.967 212.603 253.743 215.921C253.52 219.24 253.386 221.483 253.34 222.65C253.238 226.921 253.088 229.295 252.891 229.771C252.876 230.16 252.841 230.649 252.787 231.236C252.788 231.752 252.741 232.145 252.646 232.415C252.615 232.677 252.504 232.821 252.314 232.845C251.806 232.909 251.409 232.831 251.123 232.609C250.9 232.379 250.546 231.876 250.06 231.099C249.471 230.529 247.778 227.615 244.981 222.358C244.391 221.271 242.586 217.727 239.565 211.724C239.014 210.439 238.149 208.71 236.97 206.538L235.189 203.183L234.195 206.019C233.737 207.497 233.083 209.967 232.233 213.43L231.714 215.431C231.234 217.75 230.605 222.443 229.826 229.51L229.51 232.356C229.417 233.142 229.196 233.945 228.848 234.763C228.556 235.51 228.251 235.903 227.934 235.944ZM292.248 227.865C291.867 227.914 290.78 227.987 288.986 228.086C287.248 228.114 285.712 228.212 284.379 228.382C283.363 228.511 282.101 228.736 280.593 229.056L278.606 229.406C277.653 229.527 277.129 229.207 277.032 228.445L276.897 226.623L275.799 219.505C275.396 216.846 274.877 213.525 274.242 209.542C273.67 205.55 273.363 203.137 273.322 202.304C273.321 201.788 273.123 199.974 272.727 196.863L272.279 193.34C271.965 191.38 271.582 188.106 271.128 183.519L270.194 175.412C269.927 173.316 269.529 170.69 268.999 167.531C268.686 166.087 268.388 164.254 268.106 162.032L267.805 160.425C267.716 159.727 267.826 159.326 268.136 159.222C268.509 159.11 268.921 159.058 269.374 159.065C269.882 159 270.39 158.935 270.898 158.871C271.668 158.837 272.973 158.704 274.814 158.47C276.846 158.212 278.334 157.99 279.278 157.806C279.913 157.725 280.548 157.644 281.183 157.563C281.873 157.411 282.445 157.339 282.897 157.346C283.088 157.321 283.262 157.428 283.422 157.666C283.636 157.832 283.752 157.979 283.768 158.106L283.783 159.749L284.723 164.855L285.596 172.486L285.883 173.224C288.967 171.09 292.159 169.813 295.461 169.393C298.191 169.046 300.429 169.149 302.177 169.701C303.988 170.245 305.733 171.539 307.412 173.584C309.171 175.747 310.474 177.872 311.319 179.958C311.83 181.441 312.231 183.326 312.522 185.611L313.16 189.111C314.219 194.396 314.898 198.212 315.196 200.562C315.382 202.022 315.54 203.776 315.672 205.824L315.964 208.883C316.02 209.328 316.138 210.506 316.317 212.419C316.551 214.26 316.95 217.403 317.515 221.847C317.555 222.165 317.623 222.446 317.719 222.692C317.815 222.938 317.883 223.22 317.923 223.537C317.98 223.982 317.695 224.276 317.068 224.42C316.441 224.564 314.953 224.786 312.604 225.084C308.858 225.56 306.251 225.86 304.783 225.982C304.338 226.038 303.834 226.134 303.271 226.271C302.716 226.47 302.248 226.594 301.867 226.643C301.414 226.636 301.16 226.41 301.103 225.965C300.575 223.839 299.839 219.062 298.894 211.634L298.118 204.765C297.825 201.447 297.57 198.931 297.352 197.217C296.965 194.17 296.389 191.92 295.624 190.469C294.914 188.946 293.734 188.29 292.083 188.5C291.321 188.597 290.698 188.773 290.215 189.028C289.723 189.219 289.215 189.542 288.692 189.995L291.16 208.649C292.005 213.767 292.576 217.501 292.875 219.85C293.197 222.39 293.36 224.176 293.362 225.208L293.398 225.493C293.431 225.747 293.499 226.029 293.602 226.338C293.706 226.648 293.735 226.87 293.687 227.005C293.744 227.449 293.264 227.736 292.248 227.865ZM343.209 222.258C338.574 222.848 334.743 222.399 331.716 220.913C328.688 219.427 326.876 216.335 326.278 211.637C326.208 208.549 328.176 206.008 332.181 204.015C336.185 202.023 340.791 200.695 345.997 200.033C347.647 199.824 349.599 199.446 351.853 198.902C354.106 198.357 356.185 197.964 358.09 197.722C356.964 190.898 355.838 185.589 354.711 181.797C353.639 177.933 352.248 175.11 350.537 173.328C348.89 171.537 346.765 170.807 344.162 171.138C342.258 171.38 340.505 172.055 338.903 173.161C337.302 174.268 335.353 175.935 333.055 178.163C331.154 179.953 330.203 180.848 330.203 180.848C330.14 180.856 329.934 181.011 329.585 181.314C329.292 181.544 328.982 181.648 328.657 181.625C328.069 181.571 327.747 181.321 327.691 180.877C327.389 180.528 326.962 179.711 326.412 178.427C325.925 177.134 325.645 176.202 325.572 175.63C325.524 175.249 325.848 174.756 326.546 174.152C329.477 171.327 331.981 169.203 334.058 167.777C336.19 166.281 338.03 165.273 339.577 164.753C341.187 164.226 343.071 163.825 345.23 163.551C351.579 162.744 356.095 164.267 358.778 168.119C361.517 171.9 363.318 177.187 364.182 183.98C364.407 185.758 364.651 188.179 364.911 191.242C365.145 193.083 365.361 195.798 365.559 199.385L365.754 201.683L366.564 207.29C367.014 209.813 367.323 211.742 367.493 213.075L367.761 215.944C367.819 217.42 367.341 218.223 366.325 218.352L365.551 218.354L361.646 218.85C361.392 218.883 361.126 218.82 360.848 218.661C360.625 218.432 360.494 218.158 360.454 217.841L360.357 217.079C356.685 218.642 353.734 219.791 351.505 220.526C349.276 221.261 346.51 221.839 343.209 222.258ZM342.614 216.818C349.408 215.954 355.072 214.073 359.606 211.174L358.766 202.281C355.75 202.407 353.162 202.606 351.004 202.881L345.397 203.69C342.35 204.078 339.696 205.028 337.437 206.541C335.17 207.99 334.074 209.775 334.15 211.894C334.44 214.18 335.178 215.667 336.362 216.355C337.546 217.043 339.63 217.197 342.614 216.818ZM392.196 215.354C389.656 215.677 387.703 215.538 386.336 214.938C384.97 214.337 384.011 213.394 383.461 212.11C382.902 210.761 382.474 208.913 382.175 206.563L381.52 200.647L380.568 189.349L379.788 180.932L378.021 167.028C374.973 167.415 373.163 167.129 372.589 166.17C372.334 165.686 372.17 165.159 372.097 164.587C372.017 163.952 371.972 163.345 371.963 162.766C372.017 162.178 372.012 161.63 371.947 161.122C373.098 161.041 374.848 160.85 377.197 160.552L377.244 160.159L376.879 156.528L376.359 152.433C376.102 150.917 376.068 149.889 376.257 149.349C376.502 148.737 376.91 148.395 377.481 148.322C377.799 148.282 378.057 148.282 378.255 148.321L378.446 148.297C378.573 148.28 378.795 148.252 379.113 148.212C379.422 148.108 379.712 148.103 379.982 148.198C381.276 148.227 381.979 148.686 382.092 149.575C382.116 149.765 382.146 150.504 382.18 151.79C382.145 154.052 382.262 156.747 382.53 159.874L391.673 158.712C392.181 158.647 392.65 159.039 393.08 159.888C393.503 160.673 393.774 161.541 393.896 162.494C394.057 163.764 393.864 164.53 393.317 164.793C392.159 165.327 390.723 165.703 389.009 165.921C387.485 166.115 385.564 166.23 383.246 166.267L386.115 188.837L386.504 192.659C386.629 195.159 386.86 197.742 387.199 200.409L387.441 202.313C387.7 204.345 388.338 205.812 389.356 206.715C390.365 207.555 391.601 207.881 393.061 207.696C394.458 207.518 395.66 207.333 396.668 207.141C397.667 206.884 398.389 206.728 398.834 206.672C399.532 206.583 400.039 207.777 400.353 210.253L400.928 211.728C401.175 212.148 401.176 212.406 400.93 212.502C398.995 213.522 397.532 214.192 396.54 214.512C395.612 214.823 394.164 215.104 392.196 215.354ZM421.027 195.915C420.011 196.044 419.078 195.808 418.227 195.207C416.821 194.805 416.086 194.35 416.021 193.842C415.734 193.104 415.526 192.228 415.397 191.212L415.08 187.962C414.981 186.168 414.867 184.763 414.738 183.747C414.545 182.223 414.874 180.504 415.728 178.589C416.573 176.611 417.866 174.092 419.606 171.032C421.156 168.512 422.117 166.68 422.488 165.537C423.317 163.431 423.622 161.521 423.405 159.807C423.179 158.03 422.386 156.614 421.026 155.561C418.713 154.113 416.604 153.51 414.7 153.753C413.938 153.849 413.037 154.125 411.998 154.58C410.801 155.313 409.161 156.876 407.078 159.27C406.849 159.492 406.456 159.446 405.899 159.129C405.343 158.813 404.532 158.271 403.467 157.503L401.332 155.936C400.831 155.548 400.314 155.033 399.781 154.391C399.24 153.686 399.179 153.209 399.599 152.962C401.182 150.697 402.818 148.844 404.506 147.403C406.835 145.43 408.924 144.1 410.772 143.413C412.676 142.655 415.723 142.01 419.913 141.477C422.072 141.203 424.2 141.706 426.299 142.988C428.397 144.27 430.199 146.266 431.705 148.978C433.275 151.682 434.298 154.906 434.774 158.652C435.169 161.763 434.64 164.96 433.186 168.241C431.788 171.451 430.202 174.201 428.428 176.491C427.32 177.922 426.561 179.567 426.153 181.425C425.744 183.284 425.668 185.229 425.927 187.26C426.233 189.673 426.217 191.32 425.877 192.202C425.815 192.726 425.621 193.235 425.297 193.727C425.036 194.212 424.723 194.542 424.358 194.718C424.112 194.813 423.625 195.037 422.895 195.387C422.221 195.667 421.598 195.843 421.027 195.915ZM422.371 212.583C420.784 212.785 419.299 212.264 417.915 211.02C416.586 209.705 415.801 208.095 415.559 206.191C415.486 205.619 415.462 205.171 415.485 204.845C415.661 201.662 417.59 199.836 421.272 199.368C423.304 199.11 424.916 199.614 426.11 200.882C427.358 202.078 428.08 203.438 428.273 204.962C428.33 205.406 428.338 205.728 428.299 205.926C428.388 206.625 428.175 207.49 427.662 208.523C427.14 209.493 426.411 210.36 425.476 211.124C424.549 211.951 423.514 212.438 422.371 212.583ZM451.95 190.63C451.005 190.814 450.378 190.7 450.068 190.288C449.749 189.813 449.489 189.039 449.289 187.968C449.081 187.349 448.836 185.929 448.554 183.707L448.069 179.897L446.935 172.493C446.298 167.994 445.215 162.519 443.685 156.068C442.252 149.863 441.49 146.412 441.401 145.713L441.135 143.618C440.82 141.142 441.298 139.823 442.568 139.662C442.885 139.622 443.143 139.621 443.342 139.66C443.794 139.667 444.243 139.643 444.687 139.586C445.187 139.458 445.627 139.37 446.008 139.321L448.199 139.043C449.913 138.825 451.282 138.683 452.306 138.618C453.076 138.584 453.636 138.674 453.985 138.888C454.335 139.102 454.538 139.431 454.595 139.875C454.635 140.192 454.648 140.546 454.633 140.935C454.617 141.324 454.598 141.681 454.575 142.007C454.659 144.189 454.786 146.205 454.957 148.055C455.249 150.856 455.645 156.257 456.146 164.258L456.704 169.413L457.32 173.496C457.825 175.948 458.062 177.305 458.031 177.567C458 177.829 458.053 178.499 458.19 179.579L458.963 184.9C459.131 185.717 459.288 186.697 459.434 187.84C459.602 188.657 459.417 189.229 458.877 189.556C458.394 189.811 457.703 189.963 456.807 190.012L451.95 190.63ZM456.321 208.267C454.733 208.469 453.248 207.948 451.864 206.705C450.536 205.39 449.75 203.78 449.508 201.875C449.436 201.304 449.411 200.855 449.434 200.53C449.61 197.346 451.539 195.521 455.221 195.052C457.253 194.794 458.866 195.299 460.059 196.567C461.308 197.763 462.029 199.123 462.223 200.646C462.279 201.091 462.288 201.412 462.249 201.611C462.337 202.309 462.125 203.175 461.611 204.208C461.089 205.177 460.361 206.044 459.425 206.808C458.498 207.636 457.463 208.122 456.321 208.267Z" fill="#E25F00"/>
<circle cx="128.5" cy="198.5" r="47.5" fill="#FFB986"/>
</svg>
