<?xml version="1.0" encoding="UTF-8"?><svg id="_Layer_" xmlns="http://www.w3.org/2000/svg" viewBox="0 0 97.21 49.62"><defs><style>.cls-1{fill:#e16026;}</style></defs><g><path class="cls-1" d="M15.99,.15h5.12l4.29,11.75L29.74,.15h5.12l-5.95,15.41,5.17,12.72L44.85,0h6l-14.19,34.61h-4.73l-6.48-15.5-6.53,15.5h-4.78L0,0H5.95l10.82,28.28,5.17-12.72L15.99,.15Z"/><path class="cls-1" d="M62.35,.15h5.12l4.29,11.75L76.1,.15h5.12l-5.95,15.41,5.17,12.72L91.22,0h6l-14.19,34.61h-4.73l-6.48-15.5-6.53,15.5h-4.78L46.36,0h5.95l10.82,28.28,5.17-12.72L62.35,.15Z"/></g><g><path class="cls-1" d="M15.34,38h1.07l1.63,4.1,1.64-4.1h1.09l-2.02,4.92,2.21,5.22,4.18-10.22h1.23l-4.89,11.54h-1.01l-2.42-5.7-2.44,5.7h-.99l-4.88-11.54h1.22l4.19,10.22,2.19-5.22-2.02-4.92Z"/><path class="cls-1" d="M27.77,39.22v-1.62h1.11v1.62h-1.11Zm0,10.24v-8.47h1.11v8.47h-1.11Z"/><path class="cls-1" d="M31.36,37.59h1.1v10c0,.43,.08,.7,.23,.83,.15,.13,.34,.2,.55,.2,.2,0,.39-.02,.59-.06,.2-.04,.36-.09,.5-.13l.19,.89c-.21,.09-.46,.16-.76,.21-.3,.05-.56,.08-.77,.08-.5,0-.9-.15-1.19-.44-.3-.29-.45-.7-.45-1.21v-10.37Z"/><path class="cls-1" d="M35.78,37.59h1.1v10c0,.43,.08,.7,.23,.83,.15,.13,.34,.2,.55,.2,.2,0,.39-.02,.59-.06,.2-.04,.36-.09,.5-.13l.19,.89c-.21,.09-.46,.16-.76,.21-.3,.05-.56,.08-.77,.08-.5,0-.9-.15-1.19-.44-.3-.29-.45-.7-.45-1.21v-10.37Z"/><path class="cls-1" d="M47.8,38h1.07l1.62,4.1,1.64-4.1h1.09l-2.01,4.92,2.21,5.22,4.18-10.22h1.24l-4.89,11.54h-1.01l-2.42-5.7-2.44,5.7h-.99l-4.88-11.54h1.22l4.19,10.22,2.19-5.22-2.02-4.92Z"/><path class="cls-1" d="M62.76,49.62c-.61,0-1.17-.12-1.68-.35-.51-.23-.96-.55-1.33-.95s-.66-.87-.87-1.39c-.21-.52-.31-1.07-.31-1.66s.1-1.17,.31-1.69,.5-.99,.88-1.39c.38-.4,.83-.72,1.34-.95,.51-.23,1.08-.35,1.68-.35s1.16,.12,1.67,.35c.51,.23,.95,.55,1.33,.95,.38,.4,.67,.87,.88,1.39s.31,1.09,.31,1.69-.1,1.13-.31,1.66c-.21,.52-.5,.99-.87,1.39s-.82,.72-1.33,.95c-.51,.23-1.08,.35-1.7,.35Zm-3.07-4.33c0,.62,.14,1.19,.41,1.7,.28,.51,.65,.91,1.11,1.21,.47,.3,.98,.44,1.54,.44s1.08-.15,1.54-.45c.47-.3,.84-.71,1.12-1.23s.42-1.09,.42-1.7-.14-1.19-.42-1.71-.66-.93-1.12-1.23c-.47-.3-.98-.45-1.54-.45s-1.08,.16-1.54,.47c-.46,.31-.83,.72-1.11,1.23-.28,.51-.42,1.08-.42,1.72Z"/><path class="cls-1" d="M72.42,49.62c-.61,0-1.17-.12-1.68-.35-.51-.23-.96-.55-1.33-.95s-.66-.87-.87-1.39c-.21-.52-.31-1.07-.31-1.66s.1-1.17,.31-1.69,.5-.99,.88-1.39c.38-.4,.83-.72,1.34-.95,.51-.23,1.08-.35,1.68-.35s1.16,.12,1.67,.35c.51,.23,.95,.55,1.33,.95,.38,.4,.67,.87,.88,1.39s.31,1.09,.31,1.69-.1,1.13-.31,1.66c-.21,.52-.5,.99-.87,1.39s-.82,.72-1.33,.95c-.51,.23-1.08,.35-1.7,.35Zm-3.07-4.33c0,.62,.14,1.19,.41,1.7,.28,.51,.65,.91,1.11,1.21,.47,.3,.98,.44,1.54,.44s1.08-.15,1.54-.45c.47-.3,.84-.71,1.12-1.23s.42-1.09,.42-1.7-.14-1.19-.42-1.71-.66-.93-1.12-1.23c-.47-.3-.98-.45-1.54-.45s-1.08,.16-1.54,.47c-.46,.31-.83,.72-1.11,1.23-.28,.51-.42,1.08-.42,1.72Z"/><path class="cls-1" d="M77.92,45.27c0-.8,.17-1.53,.5-2.19,.33-.66,.79-1.19,1.37-1.59,.58-.4,1.25-.6,2-.6,.7,0,1.34,.19,1.89,.56,.56,.37,.99,.83,1.31,1.36v-5.22h1.1v10.53c0,.15,.03,.26,.1,.33,.07,.07,.16,.11,.29,.12v.88c-.22,.03-.38,.04-.5,.03-.23-.01-.43-.1-.6-.28-.17-.17-.26-.36-.26-.57v-.83c-.34,.55-.79,.99-1.36,1.32-.57,.32-1.17,.49-1.79,.49-.59,0-1.12-.12-1.62-.36-.49-.24-.92-.56-1.28-.97s-.64-.88-.85-1.4-.3-1.06-.3-1.62Zm7.07,1.29v-2.6c-.14-.39-.37-.74-.68-1.06-.31-.32-.67-.57-1.06-.76-.4-.19-.79-.28-1.18-.28-.45,0-.87,.09-1.24,.28-.37,.19-.69,.44-.95,.77-.27,.32-.47,.69-.61,1.1s-.21,.83-.21,1.26c0,.45,.08,.88,.24,1.29,.16,.41,.38,.77,.67,1.09,.29,.32,.63,.56,1.01,.73,.38,.17,.79,.26,1.23,.26,.28,0,.57-.05,.88-.16,.3-.11,.59-.26,.87-.44,.28-.19,.51-.41,.69-.67,.18-.26,.3-.53,.34-.81Z"/></g></svg>